<svg id="e8BrGCk2zUd1" xmlns="http://www.w3.org/2000/svg" xmlns:xlink="http://www.w3.org/1999/xlink" viewBox="0 0 511.598 511.598" shape-rendering="geometricPrecision" text-rendering="geometricPrecision"><polygon points="217.026,227.807 149.219,419.984 191.85,419.984 170.538,505.245 319.75,356.034 277.127,356.034 362.389,227.807" fill="#ffce54"/><path id="e8BrGCk2zUd3" d="M218.798,311.333c-25.34,0-48.712-11.568-64.122-31.725l-3.981-5.199-6.433,1.187c-3.56.655-7.205.999-10.827.999-32.436,0-58.821-26.385-58.821-58.82c0-19.024,9.274-36.964,24.809-48.002l4.56-3.231-.078-6.098c-.008-.241-.008-.491-.008-.733c0-54.605,44.418-99.024,99.016-99.024c2.639,0,5.348.109,8.057.328l5.862.469l3.521-4.708c9.04-12.076,20.891-22.084,34.278-28.938c14.02-7.182,29.18-10.819,45.059-10.819c17.283,0,34.285,4.513,49.18,13.053c14.458,8.29,26.683,20.195,35.395,34.426l2.451,4.028l4.637.882c46.526,8.892,80.312,49.789,80.312,97.252c0,5.785-.5,11.593-1.498,17.261l-1.203,6.846l5.793,3.864c16.393,10.952,26.198,29.259,26.198,48.954c0,32.436-26.386,58.821-58.829,58.821-14.052,0-27.666-5.043-38.314-14.192l-6.807-5.839-6.916,5.683c-14.38,11.804-32.553,18.313-51.195,18.313-18.578,0-36.064-6.15-50.522-17.782l-7.261-5.854-6.76,6.416c-15.062,14.298-34.788,22.182-55.553,22.182Z" fill="#ec87c0"/><g id="e8BrGCk2zUd4"><path d="M480.655,185.76c1.093-6.206,1.671-12.584,1.671-19.103c0-53.497-38.299-98.04-88.978-107.72-19.267-31.53-54.005-52.584-93.661-52.584-35.957,0-67.869,17.307-87.869,44.035-2.935-.233-5.909-.358-8.907-.358-60.569,0-109.68,49.102-109.68,109.68c0,.461.016.913.023,1.374-17.736,12.592-29.305,33.286-29.305,56.69c0,38.368,31.108,69.469,69.484,69.469c4.364,0,8.634-.406,12.771-1.155c16.682,21.826,42.989,35.909,72.592,35.909c24.371,0,46.511-9.555,62.888-25.105c15.645,12.584,35.551,20.141,57.205,20.141c22.015,0,42.186-7.775,57.955-20.75c12.162,10.461,27.979,16.784,45.277,16.784c38.376,0,69.477-31.116,69.477-69.484.002-24.114-12.285-45.364-30.943-57.823ZM442.123,291.74c-11.522,0-22.654-4.121-31.382-11.615l-13.583-11.687-13.833,11.374c-12.662,10.398-28.009,15.894-44.435,15.894-16.143,0-31.287-5.34-43.84-15.425l-14.521-11.694-13.528,12.849c-13.06,12.396-30.18,19.235-48.204,19.235-11.101,0-21.71-2.498-31.522-7.463-9.384-4.746-17.729-11.694-24.138-20.078l-7.946-10.397-12.881,2.389c-2.92.538-5.901.819-8.876.819-26.558,0-48.165-21.608-48.165-48.165c0-15.574,7.595-30.273,20.327-39.306l9.11-6.479-.141-11.179-.008-.546c0-.18-.008-.367-.008-.555c0-23.606,9.196-45.792,25.878-62.482c16.69-16.69,38.884-25.886,62.482-25.886c2.358,0,4.786.102,7.206.296l11.725.938l7.042-9.415c8.071-10.788,18.657-19.719,30.601-25.839c12.506-6.401,26.042-9.648,40.203-9.648c15.426,0,30.586,4.027,43.871,11.639c12.912,7.4,23.842,18.033,31.602,30.742l4.918,8.048l9.273,1.772c41.53,7.931,71.662,44.434,71.662,86.783c0,5.168-.468,10.359-1.342,15.418l-2.404,13.692l11.553,7.721c13.443,8.978,21.469,23.966,21.469,40.094.001,26.557-21.608,48.156-48.165,48.156Z" fill="#d770ad"/><path d="M409.18,110.483c-.905-18.259-6.261-35.347-15.02-50.187h-25.886c11.632,14.293,18.438,31.693,19.563,50.187h21.343Z" fill="#d770ad"/></g><path id="e8BrGCk2zUd7" d="M154.848,343.715c-25.34,0-48.712-11.569-64.122-31.741l-3.981-5.184-6.432,1.187c-3.561.656-7.206.999-10.828.999-32.436,0-58.821-26.385-58.821-58.828c0-19.017,9.274-36.964,24.809-47.994l4.56-3.239-.078-6.098c-.008-.241-.008-.483-.008-.733c0-54.598,44.418-99.017,99.017-99.017c2.646,0,5.354.109,8.056.328l5.862.469l3.521-4.708c9.039-12.084,20.89-22.092,34.277-28.945c14.021-7.183,29.181-10.82,45.059-10.82c17.283,0,34.286,4.513,49.181,13.053c14.457,8.29,26.682,20.195,35.395,34.426l2.451,4.028l4.637.89c46.525,8.892,80.312,49.789,80.312,97.245c0,5.792-.5,11.6-1.5,17.268l-1.201,6.846l5.792,3.856c16.394,10.96,26.198,29.258,26.198,48.954c0,32.428-26.386,58.813-58.829,58.813-14.052,0-27.666-5.027-38.313-14.192l-6.808-5.839-6.917,5.698c-14.379,11.804-32.553,18.314-51.193,18.314-18.587,0-36.065-6.151-50.523-17.783l-7.268-5.854-6.761,6.416c-15.053,14.301-34.78,22.185-55.544,22.185Z" fill="#ec87c0"/><g id="e8BrGCk2zUd8"><path d="M416.705,218.141c1.094-6.206,1.671-12.592,1.671-19.109c0-53.49-38.298-98.033-88.978-107.721-19.266-31.53-54.005-52.576-93.661-52.576-35.956,0-67.869,17.299-87.869,44.036-2.935-.242-5.909-.367-8.906-.367-60.57,0-109.681,49.11-109.681,109.68c0,.461.016.921.023,1.382C11.569,206.049,0,226.751,0,250.148c0,38.376,31.108,69.477,69.484,69.477c4.364,0,8.634-.406,12.771-1.171c16.683,21.843,42.99,35.925,72.592,35.925c24.371,0,46.511-9.555,62.889-25.121c15.651,12.6,35.55,20.156,57.205,20.156c22.014,0,42.186-7.791,57.954-20.749c12.163,10.444,27.979,16.783,45.277,16.783c38.376,0,69.478-31.116,69.478-69.492.001-24.114-12.288-45.356-30.945-57.815Zm-38.532,105.98c-11.522,0-22.654-4.121-31.382-11.615l-13.583-11.694-13.833,11.382c-12.662,10.398-28.01,15.894-44.434,15.894-16.129,0-31.296-5.339-43.841-15.425l-14.527-11.71-13.521,12.864c-13.06,12.397-30.18,19.235-48.204,19.235-11.101,0-21.71-2.514-31.522-7.479-9.383-4.73-17.729-11.679-24.138-20.062l-7.946-10.397-12.881,2.389c-2.92.546-5.901.812-8.876.812-26.558,0-48.165-21.608-48.165-48.165c0-15.574,7.596-30.266,20.327-39.306l9.11-6.472-.141-11.179-.008-.546c0-.188-.008-.375-.008-.562c0-23.599,9.196-45.792,25.879-62.482c16.689-16.69,38.883-25.878,62.482-25.878c2.365,0,4.785.102,7.197.289l11.725.944l7.05-9.415c8.071-10.788,18.657-19.727,30.601-25.839c12.506-6.409,26.035-9.656,40.203-9.656c15.426,0,30.593,4.027,43.872,11.646c12.912,7.4,23.841,18.025,31.6,30.734l4.918,8.056l9.274,1.772c41.53,7.932,71.663,44.426,71.663,86.776c0,5.175-.469,10.358-1.343,15.417l-2.404,13.692l11.554,7.729c13.442,8.97,21.467,23.958,21.467,40.086c0,26.557-21.607,48.165-48.165,48.165Z" fill="#d770ad"/><path d="M330.086,276.065c0-5.559.967-10.905,2.701-15.878h-22.187c-1.187,5.098-1.827,10.413-1.827,15.878c0,20.733,9.071,39.344,23.482,52.053l17.549-13.224c-11.943-8.774-19.718-22.904-19.718-38.829Z" fill="#d770ad"/><path d="M153.075,83.06v21.515c18.26,2.904,35.09,11.444,48.416,24.77c4.16,4.161,7.853,8.673,11.062,13.451h24.582c-16.003-31.97-47.166-55.013-84.06-59.736Z" fill="#d770ad"/><path d="M345.231,142.857c-.906-18.259-6.262-35.339-15.02-50.179h-25.887c11.632,14.293,18.439,31.693,19.562,50.179h21.345Z" fill="#d770ad"/><path d="M93.896,228.126h-23.669c-4.419,10.711-6.854,22.443-6.854,34.746c0,23.872,9.165,45.605,24.169,61.874l13.974-16.331c-10.883-12.678-16.823-28.665-16.823-45.543-.001-12.388,3.199-24.285,9.203-34.746Z" fill="#d770ad"/></g>
<script><![CDATA[
!function(t,n){"object"==typeof exports&&"undefined"!=typeof module?module.exports=n():"function"==typeof __SVGATOR_DEFINE__&&__SVGATOR_DEFINE__.amd?__SVGATOR_DEFINE__(n):((t="undefined"!=typeof globalThis?globalThis:t||self).__SVGATOR_PLAYER__=t.__SVGATOR_PLAYER__||{},t.__SVGATOR_PLAYER__["5c7f360c"]=n())}(this,(function(){"use strict";function t(t,n){var e=Object.keys(t);if(Object.getOwnPropertySymbols){var r=Object.getOwnPropertySymbols(t);n&&(r=r.filter((function(n){return Object.getOwnPropertyDescriptor(t,n).enumerable}))),e.push.apply(e,r)}return e}function n(n){for(var e=1;e<arguments.length;e++){var r=null!=arguments[e]?arguments[e]:{};e%2?t(Object(r),!0).forEach((function(t){u(n,t,r[t])})):Object.getOwnPropertyDescriptors?Object.defineProperties(n,Object.getOwnPropertyDescriptors(r)):t(Object(r)).forEach((function(t){Object.defineProperty(n,t,Object.getOwnPropertyDescriptor(r,t))}))}return n}function e(t){return(e="function"==typeof Symbol&&"symbol"==typeof Symbol.iterator?function(t){return typeof t}:function(t){return t&&"function"==typeof Symbol&&t.constructor===Symbol&&t!==Symbol.prototype?"symbol":typeof t})(t)}function r(t,n){if(!(t instanceof n))throw new TypeError("Cannot call a class as a function")}function i(t,n){for(var e=0;e<n.length;e++){var r=n[e];r.enumerable=r.enumerable||!1,r.configurable=!0,"value"in r&&(r.writable=!0),Object.defineProperty(t,r.key,r)}}function o(t,n,e){return n&&i(t.prototype,n),e&&i(t,e),t}function u(t,n,e){return n in t?Object.defineProperty(t,n,{value:e,enumerable:!0,configurable:!0,writable:!0}):t[n]=e,t}function a(t){return(a=Object.setPrototypeOf?Object.getPrototypeOf:function(t){return t.__proto__||Object.getPrototypeOf(t)})(t)}function l(t,n){return(l=Object.setPrototypeOf||function(t,n){return t.__proto__=n,t})(t,n)}function s(){if("undefined"==typeof Reflect||!Reflect.construct)return!1;if(Reflect.construct.sham)return!1;if("function"==typeof Proxy)return!0;try{return Boolean.prototype.valueOf.call(Reflect.construct(Boolean,[],(function(){}))),!0}catch(t){return!1}}function f(t,n,e){return(f=s()?Reflect.construct:function(t,n,e){var r=[null];r.push.apply(r,n);var i=new(Function.bind.apply(t,r));return e&&l(i,e.prototype),i}).apply(null,arguments)}function c(t,n){if(n&&("object"==typeof n||"function"==typeof n))return n;if(void 0!==n)throw new TypeError("Derived constructors may only return object or undefined");return function(t){if(void 0===t)throw new ReferenceError("this hasn't been initialised - super() hasn't been called");return t}(t)}function h(t,n,e){return(h="undefined"!=typeof Reflect&&Reflect.get?Reflect.get:function(t,n,e){var r=function(t,n){for(;!Object.prototype.hasOwnProperty.call(t,n)&&null!==(t=a(t)););return t}(t,n);if(r){var i=Object.getOwnPropertyDescriptor(r,n);return i.get?i.get.call(e):i.value}})(t,n,e||t)}function v(t){return function(t){if(Array.isArray(t))return y(t)}(t)||function(t){if("undefined"!=typeof Symbol&&null!=t[Symbol.iterator]||null!=t["@@iterator"])return Array.from(t)}(t)||function(t,n){if(!t)return;if("string"==typeof t)return y(t,n);var e=Object.prototype.toString.call(t).slice(8,-1);"Object"===e&&t.constructor&&(e=t.constructor.name);if("Map"===e||"Set"===e)return Array.from(t);if("Arguments"===e||/^(?:Ui|I)nt(?:8|16|32)(?:Clamped)?Array$/.test(e))return y(t,n)}(t)||function(){throw new TypeError("Invalid attempt to spread non-iterable instance.\nIn order to be iterable, non-array objects must have a [Symbol.iterator]() method.")}()}function y(t,n){(null==n||n>t.length)&&(n=t.length);for(var e=0,r=new Array(n);e<n;e++)r[e]=t[e];return r}function g(t,n,e){if(Number.isInteger(t))return t;var r=Math.pow(10,n);return Math[e]((+t+Number.EPSILON)*r)/r}Number.isInteger||(Number.isInteger=function(t){return"number"==typeof t&&isFinite(t)&&Math.floor(t)===t}),Number.EPSILON||(Number.EPSILON=2220446049250313e-31);var d=p(Math.pow(10,-6));function p(t){var n=arguments.length>1&&void 0!==arguments[1]?arguments[1]:6;return g(t,n,"round")}function m(t,n){var e=arguments.length>2&&void 0!==arguments[2]?arguments[2]:d;return Math.abs(t-n)<e}p(Math.pow(10,-2)),p(Math.pow(10,-4));var b=Math.PI/180;function w(t){return t}function A(t,n,e){var r=1-e;return 3*e*r*(t*r+n*e)+e*e*e}function _(){var t=arguments.length>0&&void 0!==arguments[0]?arguments[0]:0,n=arguments.length>1&&void 0!==arguments[1]?arguments[1]:0,e=arguments.length>2&&void 0!==arguments[2]?arguments[2]:1,r=arguments.length>3&&void 0!==arguments[3]?arguments[3]:1;return t<0||t>1||e<0||e>1?null:m(t,n)&&m(e,r)?w:function(i){if(i<=0)return t>0?i*n/t:0===n&&e>0?i*r/e:0;if(i>=1)return e<1?1+(i-1)*(r-1)/(e-1):1===e&&t<1?1+(i-1)*(n-1)/(t-1):1;for(var o,u=0,a=1;u<a;){var l=A(t,e,o=(u+a)/2);if(m(i,l))break;l<i?u=o:a=o}return A(n,r,o)}}function x(){return 1}function k(t){return 1===t?1:0}function S(){var t=arguments.length>0&&void 0!==arguments[0]?arguments[0]:1,n=arguments.length>1&&void 0!==arguments[1]?arguments[1]:0;if(1===t){if(0===n)return k;if(1===n)return x}var e=1/t;return function(t){return t>=1?1:(t+=n*e)-t%e}}var O=Math.sin,j=Math.cos,M=Math.acos,E=Math.asin,P=Math.tan,I=Math.atan2,R=Math.PI/180,F=180/Math.PI,N=Math.sqrt,T=function(){function t(){var n=arguments.length>0&&void 0!==arguments[0]?arguments[0]:1,e=arguments.length>1&&void 0!==arguments[1]?arguments[1]:0,i=arguments.length>2&&void 0!==arguments[2]?arguments[2]:0,o=arguments.length>3&&void 0!==arguments[3]?arguments[3]:1,u=arguments.length>4&&void 0!==arguments[4]?arguments[4]:0,a=arguments.length>5&&void 0!==arguments[5]?arguments[5]:0;r(this,t),this.m=[n,e,i,o,u,a],this.i=null,this.w=null,this.s=null}return o(t,[{key:"determinant",get:function(){var t=this.m;return t[0]*t[3]-t[1]*t[2]}},{key:"isIdentity",get:function(){if(null===this.i){var t=this.m;this.i=1===t[0]&&0===t[1]&&0===t[2]&&1===t[3]&&0===t[4]&&0===t[5]}return this.i}},{key:"point",value:function(t,n){var e=this.m;return{x:e[0]*t+e[2]*n+e[4],y:e[1]*t+e[3]*n+e[5]}}},{key:"translateSelf",value:function(){var t=arguments.length>0&&void 0!==arguments[0]?arguments[0]:0,n=arguments.length>1&&void 0!==arguments[1]?arguments[1]:0;if(!t&&!n)return this;var e=this.m;return e[4]+=e[0]*t+e[2]*n,e[5]+=e[1]*t+e[3]*n,this.w=this.s=this.i=null,this}},{key:"rotateSelf",value:function(){var t=arguments.length>0&&void 0!==arguments[0]?arguments[0]:0;if(t%=360){var n=O(t*=R),e=j(t),r=this.m,i=r[0],o=r[1];r[0]=i*e+r[2]*n,r[1]=o*e+r[3]*n,r[2]=r[2]*e-i*n,r[3]=r[3]*e-o*n,this.w=this.s=this.i=null}return this}},{key:"scaleSelf",value:function(){var t=arguments.length>0&&void 0!==arguments[0]?arguments[0]:1,n=arguments.length>1&&void 0!==arguments[1]?arguments[1]:1;if(1!==t||1!==n){var e=this.m;e[0]*=t,e[1]*=t,e[2]*=n,e[3]*=n,this.w=this.s=this.i=null}return this}},{key:"skewSelf",value:function(t,n){if(n%=360,(t%=360)||n){var e=this.m,r=e[0],i=e[1],o=e[2],u=e[3];t&&(t=P(t*R),e[2]+=r*t,e[3]+=i*t),n&&(n=P(n*R),e[0]+=o*n,e[1]+=u*n),this.w=this.s=this.i=null}return this}},{key:"resetSelf",value:function(){var t=arguments.length>0&&void 0!==arguments[0]?arguments[0]:1,n=arguments.length>1&&void 0!==arguments[1]?arguments[1]:0,e=arguments.length>2&&void 0!==arguments[2]?arguments[2]:0,r=arguments.length>3&&void 0!==arguments[3]?arguments[3]:1,i=arguments.length>4&&void 0!==arguments[4]?arguments[4]:0,o=arguments.length>5&&void 0!==arguments[5]?arguments[5]:0,u=this.m;return u[0]=t,u[1]=n,u[2]=e,u[3]=r,u[4]=i,u[5]=o,this.w=this.s=this.i=null,this}},{key:"recomposeSelf",value:function(){var t=arguments.length>0&&void 0!==arguments[0]?arguments[0]:null,n=arguments.length>1&&void 0!==arguments[1]?arguments[1]:null,e=arguments.length>2&&void 0!==arguments[2]?arguments[2]:null,r=arguments.length>3&&void 0!==arguments[3]?arguments[3]:null,i=arguments.length>4&&void 0!==arguments[4]?arguments[4]:null;return this.isIdentity||this.resetSelf(),t&&(t.x||t.y)&&this.translateSelf(t.x,t.y),n&&this.rotateSelf(n),e&&(e.x&&this.skewSelf(e.x,0),e.y&&this.skewSelf(0,e.y)),!r||1===r.x&&1===r.y||this.scaleSelf(r.x,r.y),i&&(i.x||i.y)&&this.translateSelf(i.x,i.y),this}},{key:"decompose",value:function(){var t=arguments.length>0&&void 0!==arguments[0]?arguments[0]:0,n=arguments.length>1&&void 0!==arguments[1]?arguments[1]:0,e=this.m,r=e[0]*e[0]+e[1]*e[1],i=[[e[0],e[1]],[e[2],e[3]]],o=N(r);if(0===o)return{origin:{x:p(e[4]),y:p(e[5])},translate:{x:p(t),y:p(n)},scale:{x:0,y:0},skew:{x:0,y:0},rotate:0};i[0][0]/=o,i[0][1]/=o;var u=e[0]*e[3]-e[1]*e[2]<0;u&&(o=-o);var a=i[0][0]*i[1][0]+i[0][1]*i[1][1];i[1][0]-=i[0][0]*a,i[1][1]-=i[0][1]*a;var l=N(i[1][0]*i[1][0]+i[1][1]*i[1][1]);if(0===l)return{origin:{x:p(e[4]),y:p(e[5])},translate:{x:p(t),y:p(n)},scale:{x:p(o),y:0},skew:{x:0,y:0},rotate:0};i[1][0]/=l,i[1][1]/=l,a/=l;var s=0;return i[1][1]<0?(s=M(i[1][1])*F,i[0][1]<0&&(s=360-s)):s=E(i[0][1])*F,u&&(s=-s),a=I(a,N(i[0][0]*i[0][0]+i[0][1]*i[0][1]))*F,u&&(a=-a),{origin:{x:p(e[4]),y:p(e[5])},translate:{x:p(t),y:p(n)},scale:{x:p(o),y:p(l)},skew:{x:p(a),y:0},rotate:p(s)}}},{key:"clone",value:function(){var t=this.m;return new this.constructor(t[0],t[1],t[2],t[3],t[4],t[5])}},{key:"toString",value:function(){var t=arguments.length>0&&void 0!==arguments[0]?arguments[0]:" ";if(null===this.s){var n=this.m.map((function(t){return p(t)}));1===n[0]&&0===n[1]&&0===n[2]&&1===n[3]?this.s="translate("+n[4]+t+n[5]+")":this.s="matrix("+n.join(t)+")"}return this.s}}],[{key:"create",value:function(t){return t?Array.isArray(t)?f(this,v(t)):t instanceof this?t.clone():(new this).recomposeSelf(t.origin,t.rotate,t.skew,t.scale,t.translate):new this}}]),t}();function q(t,n,e){return t>=.5?e:n}function B(t,n,e){return 0===t||n===e?n:t*(e-n)+n}function D(t,n,e){var r=B(t,n,e);return r<=0?0:r}function L(t,n,e){var r=B(t,n,e);return r<=0?0:r>=1?1:r}function C(t,n,e){return 0===t?n:1===t?e:{x:B(t,n.x,e.x),y:B(t,n.y,e.y)}}function V(t,n,e){var r=function(t,n,e){return Math.round(B(t,n,e))}(t,n,e);return r<=0?0:r>=255?255:r}function G(t,n,e){return 0===t?n:1===t?e:{r:V(t,n.r,e.r),g:V(t,n.g,e.g),b:V(t,n.b,e.b),a:B(t,null==n.a?1:n.a,null==e.a?1:e.a)}}function z(t,n){for(var e=[],r=0;r<t;r++)e.push(n);return e}function Y(t,n){if(--n<=0)return t;var e=(t=Object.assign([],t)).length;do{for(var r=0;r<e;r++)t.push(t[r])}while(--n>0);return t}var $,U=function(){function t(n){r(this,t),this.list=n,this.length=n.length}return o(t,[{key:"setAttribute",value:function(t,n){for(var e=this.list,r=0;r<this.length;r++)e[r].setAttribute(t,n)}},{key:"removeAttribute",value:function(t){for(var n=this.list,e=0;e<this.length;e++)n[e].removeAttribute(t)}},{key:"style",value:function(t,n){for(var e=this.list,r=0;r<this.length;r++)e[r].style[t]=n}}]),t}(),Q=/-./g,H=function(t,n){return n.toUpperCase()};function J(t){return"function"==typeof t?t:q}function Z(t){return t?"function"==typeof t?t:Array.isArray(t)?function(t){var n=arguments.length>1&&void 0!==arguments[1]?arguments[1]:w;if(!Array.isArray(t))return n;switch(t.length){case 1:return S(t[0])||n;case 2:return S(t[0],t[1])||n;case 4:return _(t[0],t[1],t[2],t[3])||n}return n}(t,null):function(t,n){var e=arguments.length>2&&void 0!==arguments[2]?arguments[2]:w;switch(t){case"linear":return w;case"steps":return S(n.steps||1,n.jump||0)||e;case"bezier":case"cubic-bezier":return _(n.x1||0,n.y1||0,n.x2||0,n.y2||0)||e}return e}(t.type,t.value,null):null}function K(t,n,e){var r=arguments.length>3&&void 0!==arguments[3]&&arguments[3],i=n.length-1;if(t<=n[0].t)return r?[0,0,n[0].v]:n[0].v;if(t>=n[i].t)return r?[i,1,n[i].v]:n[i].v;var o,u=n[0],a=null;for(o=1;o<=i;o++){if(!(t>n[o].t)){a=n[o];break}u=n[o]}return null==a?r?[i,1,n[i].v]:n[i].v:u.t===a.t?r?[o,1,a.v]:a.v:(t=(t-u.t)/(a.t-u.t),u.e&&(t=u.e(t)),r?[o,t,e(t,u.v,a.v)]:e(t,u.v,a.v))}function W(t,n){var e=arguments.length>2&&void 0!==arguments[2]?arguments[2]:null;return t&&t.length?"function"!=typeof n?null:("function"!=typeof e&&(e=null),function(r){var i=K(r,t,n);return null!=i&&e&&(i=e(i)),i}):null}function X(t,n){return t.t-n.t}function tt(t,n,r,i,o){var u,a="@"===r[0],l="#"===r[0],s=$[r],f=q;switch(a?(u=r.substr(1),r=u.replace(Q,H)):l&&(r=r.substr(1)),e(s)){case"function":if(f=s(i,o,K,Z,r,a,n,t),l)return f;break;case"string":f=W(i,J(s));break;case"object":if((f=W(i,J(s.i),s.f))&&"function"==typeof s.u)return s.u(n,f,r,a,t)}return f?function(t,n,e){if(arguments.length>3&&void 0!==arguments[3]&&arguments[3])return t instanceof U?function(r){return t.style(n,e(r))}:function(r){return t.style[n]=e(r)};if(Array.isArray(n)){var r=n.length;return function(i){var o=e(i);if(null==o)for(var u=0;u<r;u++)t[u].removeAttribute(n);else for(var a=0;a<r;a++)t[a].setAttribute(n,o)}}return function(r){var i=e(r);null==i?t.removeAttribute(n):t.setAttribute(n,i)}}(n,r,f,a):null}function nt(t,n,r,i){if(!i||"object"!==e(i))return null;var o=null,u=null;return Array.isArray(i)?u=function(t){if(!t||!t.length)return null;for(var n=0;n<t.length;n++)t[n].e&&(t[n].e=Z(t[n].e));return t.sort(X)}(i):(u=i.keys,o=i.data||null),u?tt(t,n,r,u,o):null}function et(t,n,e){if(!e)return null;var r=[];for(var i in e)if(e.hasOwnProperty(i)){var o=nt(t,n,i,e[i]);o&&r.push(o)}return r.length?r:null}function rt(t,n){if(!n.settings.duration||n.settings.duration<0)return null;var e,r,i,o,u,a=function(t,n){if(!n)return null;var e=[];if(Array.isArray(n))for(var r=n.length,i=0;i<r;i++){var o=n[i];if(2===o.length){var u=null;if("string"==typeof o[0])u=t.getElementById(o[0]);else if(Array.isArray(o[0])){u=[];for(var a=0;a<o[0].length;a++)if("string"==typeof o[0][a]){var l=t.getElementById(o[0][a]);l&&u.push(l)}u=u.length?1===u.length?u[0]:new U(u):null}if(u){var s=et(t,u,o[1]);s&&(e=e.concat(s))}}}else for(var f in n)if(n.hasOwnProperty(f)){var c=t.getElementById(f);if(c){var h=et(t,c,n[f]);h&&(e=e.concat(h))}}return e.length?e:null}(t,n.elements);return a?(e=a,r=n.settings,i=r.duration,o=e.length,u=null,function(t,n){var a=r.iterations||1/0,l=(r.alternate&&a%2==0)^r.direction>0?i:0,s=t%i,f=1+(t-s)/i;n*=r.direction,r.alternate&&f%2==0&&(n=-n);var c=!1;if(f>a)s=l,c=!0,-1===r.fill&&(s=r.direction>0?0:i);else if(n<0&&(s=i-s),s===u)return!1;u=s;for(var h=0;h<o;h++)e[h](s);return c}):null}function it(t,n){for(var e=n.querySelectorAll("svg"),r=0;r<e.length;r++)if(e[r].id===t.root&&!e[r].svgatorAnimation)return e[r].svgatorAnimation=!0,e[r];return null}function ot(t){var n=function(t){return t.shadowRoot};return document?Array.from(t.querySelectorAll(":not("+["a","area","audio","br","canvas","circle","datalist","embed","g","head","hr","iframe","img","input","link","object","path","polygon","rect","script","source","style","svg","title","track","video"].join()+")")).filter(n).map(n):[]}function ut(t){var n=arguments.length>1&&void 0!==arguments[1]?arguments[1]:document,e=arguments.length>2&&void 0!==arguments[2]?arguments[2]:0,r=it(t,n);if(r)return r;if(e>=20)return null;for(var i=ot(n),o=0;o<i.length;o++){var u=ut(t,i[o],e+1);if(u)return u}return null}function at(t,n){if($=n,!t||!t.root||!Array.isArray(t.animations))return null;var e=ut(t);if(!e)return null;var r=t.animations.map((function(t){return rt(e,t)})).filter((function(t){return!!t}));return r.length?{svg:e,animations:r,animationSettings:t.animationSettings,options:t.options||void 0}:null}function lt(t){var n=arguments.length>1&&void 0!==arguments[1]?arguments[1]:null,e=arguments.length>2&&void 0!==arguments[2]?arguments[2]:Number,r=arguments.length>3&&void 0!==arguments[3]?arguments[3]:"undefined"!=typeof BigInt&&BigInt,i="0x"+(t.replace(/[^0-9a-fA-F]+/g,"")||27);return n&&r&&e.isSafeInteger&&!e.isSafeInteger(+i)?e(r(i))%n+n:+i}function st(t,n,e){return!t||!e||n>t.length?t:t.substring(0,n)+st(t.substring(n+1),e,e)}function ft(t){var n=arguments.length>1&&void 0!==arguments[1]?arguments[1]:27;return!t||t%n?t%n:[0,1].includes(n)?n:ft(t/n,n)}function ct(t,n,e){if(t&&t.length){var r=lt(e),i=ft(r)+5,o=st(t,ft(r,5),i);return o=o.replace(/\x7c$/g,"==").replace(/\x2f$/g,"="),o=function(t,n,e){var r=+("0x"+t.substring(0,4));t=t.substring(4);for(var i=lt(n,r)%r+e%27,o=[],u=0;u<t.length;u+=2)if("|"!==t[u]){var a=+("0x"+t[u]+t[u+1])-i;o.push(a)}else{var l=+("0x"+t.substring(u+1,u+1+4))-i;u+=3,o.push(l)}return String.fromCharCode.apply(String,o)}(o=(o=atob(o)).replace(/[\x41-\x5A]/g,""),n,r),o=JSON.parse(o)}}var ht=[{key:"alternate",def:!1},{key:"fill",def:1},{key:"iterations",def:0},{key:"direction",def:1},{key:"speed",def:1},{key:"fps",def:100}],vt=function(){function t(n,e){var i=this,o=arguments.length>2&&void 0!==arguments[2]?arguments[2]:null;r(this,t),this._id=0,this._running=!1,this._rollingBack=!1,this._animations=n,this._settings=e,(!o||o<"2022-05-02")&&delete this._settings.speed,ht.forEach((function(t){i._settings[t.key]=i._settings[t.key]||t.def})),this.duration=e.duration,this.offset=e.offset||0,this.rollbackStartOffset=0}return o(t,[{key:"alternate",get:function(){return this._settings.alternate}},{key:"fill",get:function(){return this._settings.fill}},{key:"iterations",get:function(){return this._settings.iterations}},{key:"direction",get:function(){return this._settings.direction}},{key:"speed",get:function(){return this._settings.speed}},{key:"fps",get:function(){return this._settings.fps}},{key:"maxFiniteDuration",get:function(){return this.iterations>0?this.iterations*this.duration:this.duration}},{key:"_apply",value:function(t){for(var n=arguments.length>1&&void 0!==arguments[1]?arguments[1]:{},e=this._animations,r=e.length,i=0,o=0;o<r;o++)n[o]?i++:(n[o]=e[o](t,1),n[o]&&i++);return i}},{key:"_rollback",value:function(t){var n=this,e=1/0,r=null;this.rollbackStartOffset=t,this._rollingBack=!0,this._running=!0;this._id=window.requestAnimationFrame((function i(o){if(n._rollingBack){null==r&&(r=o);var u=Math.round(t-(o-r)*n.speed);if(u>n.duration&&e!==1/0){var a=!!n.alternate&&u/n.duration%2>1,l=u%n.duration;u=(l+=a?n.duration:0)||n.duration}var s=(n.fps?1e3/n.fps:0)*n.speed,f=Math.max(0,u);f<=e-s&&(n.offset=f,e=f,n._apply(f));var c=n.iterations>0&&-1===n.fill&&u>=n.maxFiniteDuration;(u<=0||n.offset<u||c)&&n.stop(),n._id=window.requestAnimationFrame(i)}}))}},{key:"_start",value:function(){var t=this,n=arguments.length>0&&void 0!==arguments[0]?arguments[0]:0,e=-1/0,r=null,i={};this._running=!0;var o=function o(u){null==r&&(r=u);var a=Math.round((u-r)*t.speed+n),l=(t.fps?1e3/t.fps:0)*t.speed;if(a>=e+l&&!t._rollingBack&&(t.offset=a,e=a,t._apply(a,i)===t._animations.length))return void t.pause(!0);t._id=window.requestAnimationFrame(o)};this._id=window.requestAnimationFrame(o)}},{key:"_pause",value:function(){this._id&&window.cancelAnimationFrame(this._id),this._running=!1}},{key:"play",value:function(){if(!this._running)return this._rollingBack?this._rollback(this.offset):this._start(this.offset)}},{key:"stop",value:function(){this._pause(),this.offset=0,this.rollbackStartOffset=0,this._rollingBack=!1,this._apply(0)}},{key:"reachedToEnd",value:function(){return this.iterations>0&&this.offset>=this.iterations*this.duration}},{key:"restart",value:function(){var t=arguments.length>0&&void 0!==arguments[0]&&arguments[0];this.stop(t),this.play(t)}},{key:"pause",value:function(){this._pause()}},{key:"reverse",value:function(){this.direction=-this.direction}}],[{key:"build",value:function(t,n){delete t.animationSettings,t.options=ct(t.options,t.root,"5c7f360c"),t.animations.map((function(n){n.settings=ct(n.s,t.root,"5c7f360c"),delete n.s,t.animationSettings||(t.animationSettings=n.settings)}));var e=t.version;if(!(t=at(t,n)))return null;var r=t.options||{},i=new this(t.animations,t.animationSettings,e);return{el:t.svg,options:r,player:i}}},{key:"push",value:function(t){return this.build(t)}},{key:"init",value:function(){var t=this,n=window.__SVGATOR_PLAYER__&&window.__SVGATOR_PLAYER__["5c7f360c"];Array.isArray(n)&&n.splice(0).forEach((function(n){return t.build(n)}))}}]),t}();function yt(t){return p(t)+""}function gt(t){var n=arguments.length>1&&void 0!==arguments[1]?arguments[1]:" ";return t&&t.length?t.map(yt).join(n):""}function dt(t){if(!t)return"transparent";if(null==t.a||t.a>=1){var n=function(t){return 1===(t=parseInt(t).toString(16)).length?"0"+t:t},e=function(t){return t.charAt(0)===t.charAt(1)},r=n(t.r),i=n(t.g),o=n(t.b);return e(r)&&e(i)&&e(o)&&(r=r.charAt(0),i=i.charAt(0),o=o.charAt(0)),"#"+r+i+o}return"rgba("+t.r+","+t.g+","+t.b+","+t.a+")"}function pt(t){return t?"url(#"+t+")":"none"}!function(){for(var t=0,n=["ms","moz","webkit","o"],e=0;e<n.length&&!window.requestAnimationFrame;++e)window.requestAnimationFrame=window[n[e]+"RequestAnimationFrame"],window.cancelAnimationFrame=window[n[e]+"CancelAnimationFrame"]||window[n[e]+"CancelRequestAnimationFrame"];window.requestAnimationFrame||(window.requestAnimationFrame=function(n){var e=Date.now(),r=Math.max(0,16-(e-t)),i=window.setTimeout((function(){n(e+r)}),r);return t=e+r,i},window.cancelAnimationFrame=window.clearTimeout)}();var mt={f:null,i:function(t,n,e){return 0===t?n:1===t?e:{x:D(t,n.x,e.x),y:D(t,n.y,e.y)}},u:function(t,n){return function(e){var r=n(e);t.setAttribute("rx",yt(r.x)),t.setAttribute("ry",yt(r.y))}}},bt={f:null,i:function(t,n,e){return 0===t?n:1===t?e:{width:D(t,n.width,e.width),height:D(t,n.height,e.height)}},u:function(t,n){return function(e){var r=n(e);t.setAttribute("width",yt(r.width)),t.setAttribute("height",yt(r.height))}}};Object.freeze({M:2,L:2,Z:0,H:1,V:1,C:6,Q:4,T:2,S:4,A:7});var wt={},At=null;function _t(t){var n=function(){if(At)return At;if("object"!==("undefined"==typeof document?"undefined":e(document))||!document.createElementNS)return{};var t=document.createElementNS("http://www.w3.org/2000/svg","svg");return t&&t.style?(t.style.position="absolute",t.style.opacity="0.01",t.style.zIndex="-9999",t.style.left="-9999px",t.style.width="1px",t.style.height="1px",At={svg:t}):{}}().svg;if(!n)return function(t){return null};var r=document.createElementNS(n.namespaceURI,"path");r.setAttributeNS(null,"d",t),r.setAttributeNS(null,"fill","none"),r.setAttributeNS(null,"stroke","none"),n.appendChild(r);var i=r.getTotalLength();return function(t){var n=r.getPointAtLength(i*t);return{x:n.x,y:n.y}}}function xt(t){return wt[t]?wt[t]:wt[t]=_t(t)}function kt(t,n,e,r){if(!t||!r)return!1;var i=["M",t.x,t.y];if(n&&e&&(i.push("C"),i.push(n.x),i.push(n.y),i.push(e.x),i.push(e.y)),n?!e:e){var o=n||e;i.push("Q"),i.push(o.x),i.push(o.y)}return n||e||i.push("L"),i.push(r.x),i.push(r.y),i.join(" ")}function St(t,n,e,r){var i=arguments.length>4&&void 0!==arguments[4]?arguments[4]:1,o=kt(t,n,e,r),u=xt(o);try{return u(i)}catch(t){return null}}function Ot(t,n,e){return t+(n-t)*e}function jt(t,n,e){var r=arguments.length>3&&void 0!==arguments[3]&&arguments[3],i={x:Ot(t.x,n.x,e),y:Ot(t.y,n.y,e)};return r&&(i.a=Mt(t,n)),i}function Mt(t,n){return Math.atan2(n.y-t.y,n.x-t.x)}function Et(t,n,e,r){var i=1-r;return i*i*t+2*i*r*n+r*r*e}function Pt(t,n,e,r){return 2*(1-r)*(n-t)+2*r*(e-n)}function It(t,n,e,r){var i=arguments.length>4&&void 0!==arguments[4]&&arguments[4],o=St(t,n,null,e,r);return o||(o={x:Et(t.x,n.x,e.x,r),y:Et(t.y,n.y,e.y,r)}),i&&(o.a=Rt(t,n,e,r)),o}function Rt(t,n,e,r){return Math.atan2(Pt(t.y,n.y,e.y,r),Pt(t.x,n.x,e.x,r))}function Ft(t,n,e,r,i){var o=i*i;return i*o*(r-t+3*(n-e))+3*o*(t+e-2*n)+3*i*(n-t)+t}function Nt(t,n,e,r,i){var o=1-i;return 3*(o*o*(n-t)+2*o*i*(e-n)+i*i*(r-e))}function Tt(t,n,e,r,i){var o=arguments.length>5&&void 0!==arguments[5]&&arguments[5],u=St(t,n,e,r,i);return u||(u={x:Ft(t.x,n.x,e.x,r.x,i),y:Ft(t.y,n.y,e.y,r.y,i)}),o&&(u.a=qt(t,n,e,r,i)),u}function qt(t,n,e,r,i){return Math.atan2(Nt(t.y,n.y,e.y,r.y,i),Nt(t.x,n.x,e.x,r.x,i))}function Bt(t,n,e){var r=arguments.length>3&&void 0!==arguments[3]&&arguments[3];if(Lt(n)){if(Ct(e))return It(n,e.start,e,t,r)}else if(Lt(e)){if(Vt(n))return It(n,n.end,e,t,r)}else{if(Vt(n))return Ct(e)?Tt(n,n.end,e.start,e,t,r):It(n,n.end,e,t,r);if(Ct(e))return It(n,e.start,e,t,r)}return jt(n,e,t,r)}function Dt(t,n,e){var r=Bt(t,n,e,!0);return r.a=function(t){return arguments.length>1&&void 0!==arguments[1]&&arguments[1]?t+Math.PI:t}(r.a)/b,r}function Lt(t){return!t.type||"corner"===t.type}function Ct(t){return null!=t.start&&!Lt(t)}function Vt(t){return null!=t.end&&!Lt(t)}var Gt=new T;var zt={f:yt,i:B},Yt={f:yt,i:L};function $t(t,n,e){return t.map((function(t){return function(t,n,e){var r=t.v;if(!r||"g"!==r.t||r.s||!r.v||!r.r)return t;var i=e.getElementById(r.r),o=i&&i.querySelectorAll("stop")||[];return r.s=r.v.map((function(t,n){var e=o[n]&&o[n].getAttribute("offset");return{c:t,o:e=p(parseInt(e)/100)}})),delete r.v,t}(t,0,e)}))}var Ut={gt:"gradientTransform",c:{x:"cx",y:"cy"},rd:"r",f:{x:"x1",y:"y1"},to:{x:"x2",y:"y2"}};function Qt(t,n,r,i,o,u,a,l){return $t(t,0,l),n=function(t,n,e){for(var r,i,o,u=t.length-1,a={},l=0;l<=u;l++)(r=t[l]).e&&(r.e=n(r.e)),r.v&&"g"===(i=r.v).t&&i.r&&(o=e.getElementById(i.r))&&(a[i.r]={e:o,s:o.querySelectorAll("stop")});return a}(t,i,l),function(i){var o=r(i,t,Ht);if(!o)return"none";if("c"===o.t)return dt(o.v);if("g"===o.t){if(!n[o.r])return pt(o.r);var u=n[o.r];return function(t,n){for(var e=t.s,r=e.length;r<n.length;r++){var i=e[e.length-1].cloneNode();i.id=Kt(i.id),t.e.appendChild(i),e=t.s=t.e.querySelectorAll("stop")}for(var o=0,u=e.length,a=n.length-1;o<u;o++)e[o].setAttribute("stop-color",dt(n[Math.min(o,a)].c)),e[o].setAttribute("offset",n[Math.min(o,a)].o)}(u,o.s),Object.keys(Ut).forEach((function(t){if(void 0!==o[t])if("object"!==e(Ut[t])){var n,r="gt"===t?(n=o[t],Array.isArray(n)?"matrix("+n.join(" ")+")":""):o[t],i=Ut[t];u.e.setAttribute(i,r)}else Object.keys(Ut[t]).forEach((function(n){if(void 0!==o[t][n]){var e=o[t][n],r=Ut[t][n];u.e.setAttribute(r,e)}}))})),pt(o.r)}return"none"}}function Ht(t,e,r){if(0===t)return e;if(1===t)return r;if(e&&r){var i=e.t;if(i===r.t)switch(e.t){case"c":return{t:i,v:G(t,e.v,r.v)};case"g":if(e.r===r.r){var o={t:i,s:Jt(t,e.s,r.s),r:e.r};return e.gt&&r.gt&&(o.gt=function(t,n,e){var r=n.length;if(r!==e.length)return q(t,n,e);for(var i=new Array(r),o=0;o<r;o++)i[o]=B(t,n[o],e[o]);return i}(t,e.gt,r.gt)),e.c?(o.c=C(t,e.c,r.c),o.rd=D(t,e.rd,r.rd)):e.f&&(o.f=C(t,e.f,r.f),o.to=C(t,e.to,r.to)),o}}if("c"===e.t&&"g"===r.t||"c"===r.t&&"g"===e.t){var u="c"===e.t?e:r,a="g"===e.t?n({},e):n({},r),l=a.s.map((function(t){return{c:u.v,o:t.o}}));return a.s="c"===e.t?Jt(t,l,a.s):Jt(t,a.s,l),a}}return q(t,e,r)}function Jt(t,n,e){if(n.length===e.length)return n.map((function(n,r){return Zt(t,n,e[r])}));for(var r=Math.max(n.length,e.length),i=[],o=0;o<r;o++){var u=Zt(t,n[Math.min(o,n.length-1)],e[Math.min(o,e.length-1)]);i.push(u)}return i}function Zt(t,n,e){return{o:L(t,n.o,e.o||0),c:G(t,n.c,e.c||{})}}function Kt(t){return t.replace(/-fill-([0-9]+)$/,(function(t,n){return"-fill-"+(+n+1)}))}var Wt={fill:Qt,"fill-opacity":Yt,stroke:Qt,"stroke-opacity":Yt,"stroke-width":zt,"stroke-dashoffset":{f:yt,i:B},"stroke-dasharray":{f:function(t){var n=arguments.length>1&&void 0!==arguments[1]?arguments[1]:" ";return t&&t.length>0&&(t=t.map((function(t){return p(t,4)}))),gt(t,n)},i:function(t,n,e){var r,i,o,u=n.length,a=e.length;if(u!==a)if(0===u)n=z(u=a,0);else if(0===a)a=u,e=z(u,0);else{var l=(o=(r=u)*(i=a)/function(t,n){for(var e;n;)e=n,n=t%n,t=e;return t||1}(r,i))<0?-o:o;n=Y(n,Math.floor(l/u)),e=Y(e,Math.floor(l/a)),u=a=l}for(var s=[],f=0;f<u;f++)s.push(p(D(t,n[f],e[f])));return s}},opacity:Yt,transform:function(t,n,r,i){if(!(t=function(t,n){if(!t||"object"!==e(t))return null;var r=!1;for(var i in t)t.hasOwnProperty(i)&&(t[i]&&t[i].length?(t[i].forEach((function(t){t.e&&(t.e=n(t.e))})),r=!0):delete t[i]);return r?t:null}(t,i)))return null;var o=function(e,i,o){var u=arguments.length>3&&void 0!==arguments[3]?arguments[3]:null;return t[e]?r(i,t[e],o):n&&n[e]?n[e]:u};return n&&n.a&&t.o?function(n){var e=r(n,t.o,Dt);return Gt.recomposeSelf(e,o("r",n,B,0)+e.a,o("k",n,C),o("s",n,C),o("t",n,C)).toString()}:function(t){return Gt.recomposeSelf(o("o",t,Bt,null),o("r",t,B,0),o("k",t,C),o("s",t,C),o("t",t,C)).toString()}},r:zt,"#size":bt,"#radius":mt,_:function(t,n){if(Array.isArray(t))for(var e=0;e<t.length;e++)this[t[e]]=n;else this[t]=n}},Xt=function(t){!function(t,n){if("function"!=typeof n&&null!==n)throw new TypeError("Super expression must either be null or a function");t.prototype=Object.create(n&&n.prototype,{constructor:{value:t,writable:!0,configurable:!0}}),n&&l(t,n)}(u,t);var n,e,i=(n=u,e=s(),function(){var t,r=a(n);if(e){var i=a(this).constructor;t=Reflect.construct(r,arguments,i)}else t=r.apply(this,arguments);return c(this,t)});function u(){return r(this,u),i.apply(this,arguments)}return o(u,null,[{key:"build",value:function(t){var n=h(a(u),"build",this).call(this,t,Wt);if(!n)return null;n.el,n.options,function(t,n,e){t.play()}(n.player)}}]),u}(vt);return Xt.init(),Xt}));
(function(s,i,o,w,d,a,b){w[o]=w[o]||{};w[o][s]=w[o][s]||[];w[o][s].push(i);})('5c7f360c',{"root":"e8BrGCk2zUd1","version":"2022-05-04","animations":[{"elements":{"e8BrGCk2zUd3":{"transform":{"data":{"o":{"x":287.7845,"y":164.175995,"type":"corner"},"t":{"x":-287.7845,"y":-164.175995}},"keys":{"s":[{"t":0,"v":{"x":1,"y":1}},{"t":500,"v":{"x":0.9,"y":0.9}},{"t":1000,"v":{"x":1,"y":1}},{"t":1500,"v":{"x":0.9,"y":0.9}},{"t":2000,"v":{"x":1,"y":1}},{"t":2500,"v":{"x":0.9,"y":0.9}},{"t":3000,"v":{"x":1,"y":1}}]}}},"e8BrGCk2zUd4":{"transform":{"data":{"o":{"x":287.773491,"y":164.174988,"type":"corner"},"t":{"x":-287.773491,"y":-164.174988}},"keys":{"s":[{"t":0,"v":{"x":1,"y":1}},{"t":500,"v":{"x":0.9,"y":0.9}},{"t":1000,"v":{"x":1,"y":1}},{"t":1500,"v":{"x":0.9,"y":0.9}},{"t":2000,"v":{"x":1,"y":1}},{"t":2500,"v":{"x":0.9,"y":0.9}},{"t":3000,"v":{"x":1,"y":1}}]}}},"e8BrGCk2zUd7":{"transform":{"data":{"o":{"x":223.833984,"y":196.552994,"type":"corner"},"t":{"x":-223.833984,"y":-196.552994}},"keys":{"s":[{"t":0,"v":{"x":1,"y":1}},{"t":500,"v":{"x":0.9,"y":0.9}},{"t":1000,"v":{"x":1,"y":1}},{"t":1500,"v":{"x":0.9,"y":0.9}},{"t":2000,"v":{"x":1,"y":1}},{"t":2500,"v":{"x":0.9,"y":0.9}},{"t":3000,"v":{"x":1,"y":1}}]}}},"e8BrGCk2zUd8":{"transform":{"data":{"o":{"x":223.825027,"y":196.557003,"type":"corner"},"t":{"x":-223.825027,"y":-196.557003}},"keys":{"s":[{"t":0,"v":{"x":1,"y":1}},{"t":500,"v":{"x":0.9,"y":0.9}},{"t":1000,"v":{"x":1,"y":1}},{"t":1500,"v":{"x":0.9,"y":0.9}},{"t":2000,"v":{"x":1,"y":1}},{"t":2500,"v":{"x":0.9,"y":0.9}},{"t":3000,"v":{"x":1,"y":1}}]}}}},"s":"MCDA1ZGE2UDRkOGZhMDWlkOGM5Zjk0OWE5OTRPkNjU1ZTViNWI1YjU3RNGQ4Zkg5NDlkOTA4ZGTlmOTQ5YTk5NGQ2NTDVjNTdMNGQ5NDlmOTAW5ZDhjVTlmOTQ5YTk5QOWU0ZDY1SjViNTdNNXGQ5MTk0OTc5N1c0ZDCY1NWM1NzRkOGM5NzlSmRDkwOWROOTk4YzlmPOTA0ZDY1OTE4Yzk3OLWU5MDU3NGQ5ZTliOTYA5MDhmNGQ2NTVjNTcP0ZDkxOWI5ZTRkNjU1TYzViNWJhOA|"}],"options":"MDDAxMDg4MmY4MDgxNmXU3Zlg4MVAyZjQ3MmZSLNzk3YzZlNzEyZjhhA"},'__SVGATOR_PLAYER__',window,document)
]]></script>
</svg>
