<?xml version="1.0" encoding="UTF-8"?>
<!DOCTYPE svg PUBLIC "-//W3C//DTD SVG 1.1//EN" "http://www.w3.org/Graphics/SVG/1.1/DTD/svg11.dtd">
<svg xmlns="http://www.w3.org/2000/svg" version="1.1" width="1024px" height="1024px" style="shape-rendering:geometricPrecision; text-rendering:geometricPrecision; image-rendering:optimizeQuality; fill-rule:evenodd; clip-rule:evenodd" xmlns:xlink="http://www.w3.org/1999/xlink">
<g><path style="opacity:0.265" fill="#b5b8bd" d="M 487.5,17.5 C 495.326,16.8336 503.326,16.5003 511.5,16.5C 522.382,16.2756 533.049,16.9423 543.5,18.5C 540.159,19.0053 536.826,19.1719 533.5,19C 533.833,18.6667 534.167,18.3333 534.5,18C 518.837,17.5001 503.17,17.3334 487.5,17.5 Z"/></g>
<g><path style="opacity:1" fill="#dee0e3" d="M 487.5,17.5 C 503.17,17.3334 518.837,17.5001 534.5,18C 534.167,18.3333 533.833,18.6667 533.5,19C 536.826,19.1719 540.159,19.0053 543.5,18.5C 617.471,28.6128 675.137,64.2795 716.5,125.5C 716.427,127.027 717.094,128.027 718.5,128.5C 722.81,134.437 726.643,140.77 730,147.5C 735.471,158.771 740.638,170.104 745.5,181.5C 758.314,182.791 771.314,183.458 784.5,183.5C 859.837,193.907 918.67,230.574 961,293.5C 964.447,299.396 967.614,305.396 970.5,311.5C 970.427,313.027 971.094,314.027 972.5,314.5C 981.668,331.179 988.335,348.846 992.5,367.5C 992.294,370.495 992.96,373.162 994.5,375.5C 997.135,385.313 998.468,395.313 998.5,405.5C 998.388,411.726 999.054,417.726 1000.5,423.5C 1001.61,473.786 988.614,519.786 961.5,561.5C 959.932,559.069 958.432,559.069 957,561.5C 956.689,562.742 957.189,563.742 958.5,564.5C 956.063,565.803 953.896,567.47 952,569.5C 951.383,570.449 951.549,571.282 952.5,572C 950.144,573.953 948.644,576.453 948,579.5C 947.107,578.289 946.274,578.289 945.5,579.5C 944.846,581.115 944.346,582.782 944,584.5C 943.282,583.549 942.449,583.383 941.5,584C 942.337,585.011 942.67,586.178 942.5,587.5C 927.77,606.012 910.437,621.512 890.5,634C 888.787,635.378 887.453,637.045 886.5,639C 897.012,672.426 900.512,706.593 897,741.5C 894.292,766.71 887.792,790.376 877.5,812.5C 875.876,812.64 874.71,811.973 874,810.5C 873.226,814.147 872.559,817.814 872,821.5C 871.667,820.833 871.333,820.167 871,819.5C 869.956,820.623 869.29,821.956 869,823.5C 868.333,824.833 867.667,824.833 867,823.5C 866.156,830.12 863.322,835.62 858.5,840C 858.957,840.414 859.291,840.914 859.5,841.5C 857.829,843.51 857.162,845.843 857.5,848.5C 814.592,912.464 754.592,949.298 677.5,959C 616.954,965.154 561.454,951.654 511,918.5C 500.538,924.271 490.038,930.104 479.5,936C 470.691,940.074 461.691,943.574 452.5,946.5C 444.602,948.233 436.769,950.233 429,952.5C 426.776,951.359 425.276,952.026 424.5,954.5C 347.885,970.178 278.552,954.345 216.5,907C 206.698,899.365 197.698,890.865 189.5,881.5C 188.92,879.251 187.587,877.585 185.5,876.5C 148.918,835.299 128.751,786.965 125,731.5C 123.54,707.97 124.706,684.636 128.5,661.5C 130.163,659.562 130.829,657.228 130.5,654.5C 131.69,648.424 132.857,642.424 134,636.5C 71.9538,594.774 35.4538,536.774 24.5,462.5C 24.9044,457.217 24.2377,452.217 22.5,447.5C 20.0407,422.174 21.7074,397.174 27.5,372.5C 28.9238,370.485 29.5905,368.152 29.5,365.5C 34.6661,342.988 43.3328,321.988 55.5,302.5C 56.9063,302.027 57.573,301.027 57.5,299.5C 61.4799,292.866 65.8132,286.533 70.5,280.5C 71.9063,280.027 72.573,279.027 72.5,277.5C 76.9679,270.925 81.9679,264.758 87.5,259C 88.0944,258.536 88.7611,258.369 89.5,258.5C 91.5869,257.415 92.9202,255.749 93.5,253.5C 144.134,204.212 205.134,180.045 276.5,181C 284.234,161.269 293.734,142.435 305,124.5C 306.517,122.76 308.017,121.094 309.5,119.5C 310.906,119.027 311.573,118.027 311.5,116.5C 312.604,114.611 313.937,112.945 315.5,111.5C 316.906,111.027 317.573,110.027 317.5,108.5C 361.197,54.642 417.863,24.3087 487.5,17.5 Z M 669.5,147.5 C 672.846,152.204 676.179,156.871 679.5,161.5C 684.012,169.19 688.012,177.19 691.5,185.5C 691.567,186.959 691.234,188.292 690.5,189.5C 653.761,198.034 621.427,214.7 593.5,239.5C 590.911,240.419 588.911,242.086 587.5,244.5C 586.761,244.369 586.094,244.536 585.5,245C 581.482,248.876 577.816,253.043 574.5,257.5C 571.5,258.5 569.5,260.5 568.5,263.5C 567.5,263.833 566.833,264.5 566.5,265.5C 564.413,266.585 563.08,268.251 562.5,270.5C 560.11,271.891 558.443,273.891 557.5,276.5C 555.738,277.262 554.738,278.596 554.5,280.5C 553.094,280.973 552.427,281.973 552.5,283.5C 550.738,284.262 549.738,285.596 549.5,287.5C 548.094,287.973 547.427,288.973 547.5,290.5C 546.094,290.973 545.427,291.973 545.5,293.5C 529.272,317.97 517.939,344.637 511.5,373.5C 510.833,373.167 510.167,372.833 509.5,372.5C 503.21,342.263 491.21,314.596 473.5,289.5C 473.573,287.973 472.906,286.973 471.5,286.5C 469.555,282.264 466.888,278.597 463.5,275.5C 463.262,273.596 462.262,272.262 460.5,271.5C 426.161,229.476 382.494,201.809 329.5,188.5C 330.956,182.928 332.956,177.595 335.5,172.5C 346.259,154.731 358.592,138.064 372.5,122.5C 434.325,67.3 504.658,53.1333 583.5,80C 613.796,92.3004 639.629,110.8 661,135.5C 664.089,139.354 666.922,143.354 669.5,147.5 Z M 313.5,412.5 C 313.427,414.027 314.094,415.027 315.5,415.5C 324.224,426.73 333.891,437.23 344.5,447C 352.059,452.939 359.392,459.106 366.5,465.5C 352.455,466.478 338.455,467.811 324.5,469.5C 321.572,469.565 318.905,470.232 316.5,471.5C 302.305,474.445 288.639,478.778 275.5,484.5C 273.033,484.755 271.033,485.755 269.5,487.5C 261.922,489.689 254.922,493.022 248.5,497.5C 246.973,497.427 245.973,498.094 245.5,499.5C 243.566,500.11 241.899,501.11 240.5,502.5C 238.973,502.427 237.973,503.094 237.5,504.5C 235.973,504.427 234.973,505.094 234.5,506.5C 232.973,506.427 231.973,507.094 231.5,508.5C 229.596,508.738 228.262,509.738 227.5,511.5C 224.63,512.433 222.296,514.1 220.5,516.5C 218.251,517.08 216.585,518.413 215.5,520.5C 212.911,521.419 210.911,523.086 209.5,525.5C 206.236,527.094 203.569,529.427 201.5,532.5C 197.167,536.167 193.167,540.167 189.5,544.5C 186.757,546.239 184.757,548.573 183.5,551.5C 179.782,555.241 176.282,559.241 173,563.5C 167,572.167 161,580.833 155,589.5C 143.402,580.738 132.569,571.072 122.5,560.5C 121.243,557.573 119.243,555.239 116.5,553.5C 115.92,551.251 114.587,549.585 112.5,548.5C 85.8214,512.758 72.4881,472.424 72.5,427.5C 72.6119,419.156 72.9452,410.822 73.5,402.5C 75.6884,388.224 79.0217,374.224 83.5,360.5C 85.4032,357.47 86.7365,354.137 87.5,350.5C 123.163,276.789 182.163,237.123 264.5,231.5C 258.869,288.184 270.035,341.184 298,390.5C 302.641,398.29 307.808,405.624 313.5,412.5 Z M 916.5,538.5 C 915.094,538.973 914.427,539.973 914.5,541.5C 912.738,542.262 911.738,543.596 911.5,545.5C 909.738,546.262 908.738,547.596 908.5,549.5C 906.738,550.262 905.738,551.596 905.5,553.5C 903.086,554.911 901.419,556.911 900.5,559.5C 895.881,563.452 891.548,567.785 887.5,572.5C 880.809,578.522 873.809,584.189 866.5,589.5C 862.157,583.471 857.824,577.471 853.5,571.5C 853.573,569.973 852.906,568.973 851.5,568.5C 851.262,566.596 850.262,565.262 848.5,564.5C 848.573,562.973 847.906,561.973 846.5,561.5C 846.573,559.973 845.906,558.973 844.5,558.5C 844.167,557.5 843.5,556.833 842.5,556.5C 842.262,554.596 841.262,553.262 839.5,552.5C 834.871,546.203 829.538,540.537 823.5,535.5C 777.281,490.241 721.614,467.241 656.5,466.5C 656.167,465.833 655.833,465.167 655.5,464.5C 693.565,437.106 721.565,401.773 739.5,358.5C 744.201,349.735 747.535,340.401 749.5,330.5C 755.561,310.074 758.561,289.074 758.5,267.5C 758.106,256.257 757.44,245.091 756.5,234C 756.957,233.586 757.291,233.086 757.5,232.5C 827.008,234.828 880.842,264.828 919,322.5C 954.379,382.171 959.046,444.171 933,508.5C 927.744,518.683 922.244,528.683 916.5,538.5 Z M 315.5,237.5 C 378.363,253.685 423.197,291.352 450,350.5C 464.089,384.286 468.589,419.286 463.5,455.5C 389.087,433.92 341.254,385.92 320,311.5C 314.644,287.049 313.144,262.383 315.5,237.5 Z M 684.5,357.5 C 683.094,357.973 682.427,358.973 682.5,360.5C 680.917,362.663 679.584,364.996 678.5,367.5C 677.094,367.973 676.427,368.973 676.5,370.5C 674.255,373.32 672.255,376.32 670.5,379.5C 668.413,380.585 667.08,382.251 666.5,384.5C 665.094,384.973 664.427,385.973 664.5,387.5C 661.757,389.239 659.757,391.573 658.5,394.5C 642.282,412.247 623.615,426.58 602.5,437.5C 600.326,437.75 598.659,438.75 597.5,440.5C 594.088,441.075 591.088,442.408 588.5,444.5C 578.435,448.633 568.102,451.966 557.5,454.5C 550.46,392.628 567.793,338.962 609.5,293.5C 615.114,288.222 620.781,282.889 626.5,277.5C 649.713,257.643 676.213,244.643 706,238.5C 711.734,280.552 704.567,320.218 684.5,357.5 Z M 426.5,547.5 C 424.413,548.585 423.08,550.251 422.5,552.5C 421.5,552.833 420.833,553.5 420.5,554.5C 419.094,554.973 418.427,555.973 418.5,557.5C 417.5,557.833 416.833,558.5 416.5,559.5C 413.5,561.833 410.833,564.5 408.5,567.5C 405.5,569.833 402.833,572.5 400.5,575.5C 398.251,576.08 396.585,577.413 395.5,579.5C 393.251,580.08 391.585,581.413 390.5,583.5C 388.596,583.738 387.262,584.738 386.5,586.5C 384.596,586.738 383.262,587.738 382.5,589.5C 326.943,626.368 267.276,634.701 203.5,614.5C 202.89,613.609 202.557,612.609 202.5,611.5C 233.51,561.957 277.843,531.124 335.5,519C 370.161,512.924 404.161,515.424 437.5,526.5C 437.741,529.794 436.908,532.794 435,535.5C 431.911,539.354 429.078,543.354 426.5,547.5 Z M 819.5,611.5 C 818.63,613.274 817.297,614.607 815.5,615.5C 737.544,638.319 669.544,621.652 611.5,565.5C 608.138,561.808 604.805,558.141 601.5,554.5C 596.165,547.659 590.998,540.659 586,533.5C 584.798,531.323 584.298,528.989 584.5,526.5C 666.927,501.897 738.094,520.23 798,581.5C 805.924,591.038 813.091,601.038 819.5,611.5 Z M 539.5,815.5 C 538.094,815.973 537.427,816.973 537.5,818.5C 536.094,818.973 535.427,819.973 535.5,821.5C 533.738,822.262 532.738,823.596 532.5,825.5C 531.094,825.973 530.427,826.973 530.5,828.5C 529.094,828.973 528.427,829.973 528.5,831.5C 527.094,831.973 526.427,832.973 526.5,834.5C 523.864,837.31 521.364,840.31 519,843.5C 516.577,846.432 513.743,848.765 510.5,850.5C 509.833,850.333 509.167,850.167 508.5,850C 505.302,845.974 501.968,842.141 498.5,838.5C 498.573,836.973 497.906,835.973 496.5,835.5C 495.488,834.128 494.488,832.795 493.5,831.5C 493.262,829.596 492.262,828.262 490.5,827.5C 490.573,825.973 489.906,824.973 488.5,824.5C 488.573,822.973 487.906,821.973 486.5,821.5C 486.573,819.973 485.906,818.973 484.5,818.5C 484.573,816.973 483.906,815.973 482.5,815.5C 447.804,754.838 444.304,692.504 472,628.5C 482.368,608.486 495.368,590.486 511,574.5C 549.768,613.908 568.935,661.574 568.5,717.5C 567.275,752.826 557.608,785.493 539.5,815.5 Z M 415.5,628.5 C 416.404,629.209 416.737,630.209 416.5,631.5C 403.675,668.547 400.008,706.547 405.5,745.5C 405.646,749.387 406.313,753.054 407.5,756.5C 415.94,804.712 436.607,846.712 469.5,882.5C 464.028,886.742 458.028,890.242 451.5,893C 376.213,923.084 306.879,913.084 243.5,863C 229.15,850.491 216.817,836.324 206.5,820.5C 206.573,818.973 205.906,817.973 204.5,817.5C 204.573,815.973 203.906,814.973 202.5,814.5C 174.667,766.499 167.5,715.499 181,661.5C 181.561,660.978 182.228,660.645 183,660.5C 218.32,673.718 254.82,678.551 292.5,675C 306.44,673.748 320.107,671.248 333.5,667.5C 345.414,664.864 356.748,660.864 367.5,655.5C 384.447,648.03 400.447,639.03 415.5,628.5 Z M 606.5,628.5 C 666.155,670.802 732.155,684.968 804.5,671C 816.402,668.275 828.068,664.775 839.5,660.5C 853.936,710.797 848.936,759.13 824.5,805.5C 822.412,807.336 821.079,809.669 820.5,812.5C 819.094,812.973 818.427,813.973 818.5,815.5C 814.719,819.624 811.719,824.291 809.5,829.5C 807.016,831.8 805.016,834.467 803.5,837.5C 755.385,892.356 694.718,915.856 621.5,908C 597.514,903.839 574.848,896.005 553.5,884.5C 552.417,883.635 552.251,882.635 553,881.5C 563.895,869.786 573.395,857.12 581.5,843.5C 586.589,836.328 590.923,828.661 594.5,820.5C 618.979,768.775 625.146,714.775 613,658.5C 610.318,648.769 607.485,639.103 604.5,629.5C 604.842,628.662 605.508,628.328 606.5,628.5 Z"/></g>
<g><path style="opacity:0.165" fill="#343643" d="M 317.5,108.5 C 317.573,110.027 316.906,111.027 315.5,111.5C 315.427,109.973 316.094,108.973 317.5,108.5 Z"/></g>
<g><path style="opacity:0.145" fill="#33373e" d="M 311.5,116.5 C 311.573,118.027 310.906,119.027 309.5,119.5C 309.427,117.973 310.094,116.973 311.5,116.5 Z"/></g>
<g><path style="opacity:0.078" fill="#2b2c2d" d="M 716.5,125.5 C 717.906,125.973 718.573,126.973 718.5,128.5C 717.094,128.027 716.427,127.027 716.5,125.5 Z"/></g>
<g><path style="opacity:0.942" fill="#a1a4aa" d="M 669.5,147.5 C 672.179,147.525 673.512,148.858 673.5,151.5C 674.833,151.5 676.167,151.5 677.5,151.5C 677.31,155.032 677.977,158.365 679.5,161.5C 676.179,156.871 672.846,152.204 669.5,147.5 Z"/></g>
<g><path style="opacity:0.912" fill="#bec0c3" d="M 372.5,122.5 C 358.592,138.064 346.259,154.731 335.5,172.5C 336.307,168.048 337.807,163.382 340,158.5C 340.333,158.833 340.667,159.167 341,159.5C 342.462,157.012 343.462,154.345 344,151.5C 345.6,150.134 347.433,149.134 349.5,148.5C 347.615,147.803 347.282,146.803 348.5,145.5C 351.618,142.093 354.618,138.593 357.5,135C 358.448,134.517 359.448,134.351 360.5,134.5C 359.956,130.588 361.623,128.255 365.5,127.5C 365.968,125.866 366.968,124.7 368.5,124C 367.742,122.636 368.242,121.469 370,120.5C 370.417,121.756 371.25,122.423 372.5,122.5 Z"/></g>
<g><path style="opacity:0.384" fill="#aeb0b6" d="M 745.5,181.5 C 758.695,181.356 771.695,182.023 784.5,183.5C 771.314,183.458 758.314,182.791 745.5,181.5 Z"/></g>
<g><path style="opacity:0.161" fill="#28282e" d="M 691.5,185.5 C 692.124,185.917 692.457,186.584 692.5,187.5C 692.253,188.713 691.586,189.38 690.5,189.5C 691.234,188.292 691.567,186.959 691.5,185.5 Z"/></g>
<g><path style="opacity:0.337" fill="#737679" d="M 593.5,239.5 C 592.089,241.914 590.089,243.581 587.5,244.5C 588.911,242.086 590.911,240.419 593.5,239.5 Z"/></g>
<g><path style="opacity:0.286" fill="#67696d" d="M 93.5,253.5 C 92.9202,255.749 91.5869,257.415 89.5,258.5C 90.0798,256.251 91.4131,254.585 93.5,253.5 Z"/></g>
<g><path style="opacity:0.235" fill="#494b4f" d="M 574.5,257.5 C 572.833,259.833 570.833,261.833 568.5,263.5C 569.5,260.5 571.5,258.5 574.5,257.5 Z"/></g>
<g><path style="opacity:0.31" fill="#53545f" d="M 566.5,265.5 C 565.92,267.749 564.587,269.415 562.5,270.5C 563.08,268.251 564.413,266.585 566.5,265.5 Z"/></g>
<g><path style="opacity:0.196" fill="#4a4d52" d="M 460.5,271.5 C 462.262,272.262 463.262,273.596 463.5,275.5C 461.738,274.738 460.738,273.404 460.5,271.5 Z"/></g>
<g><path style="opacity:0.196" fill="#2e2e32" d="M 557.5,276.5 C 557.262,278.404 556.262,279.738 554.5,280.5C 554.738,278.596 555.738,277.262 557.5,276.5 Z"/></g>
<g><path style="opacity:0.149" fill="#3b3c40" d="M 72.5,277.5 C 72.573,279.027 71.9063,280.027 70.5,280.5C 70.427,278.973 71.0937,277.973 72.5,277.5 Z"/></g>
<g><path style="opacity:0.911" fill="#b3b5b8" d="M 626.5,277.5 C 620.781,282.889 615.114,288.222 609.5,293.5C 609.423,292.25 608.756,291.417 607.5,291C 608.292,288.664 609.625,288.164 611.5,289.5C 611.698,286.215 613.365,284.548 616.5,284.5C 616.351,283.448 616.517,282.448 617,281.5C 619.124,280.378 620.957,278.878 622.5,277C 623.928,276.421 625.262,276.588 626.5,277.5 Z"/></g>
<g><path style="opacity:0.153" fill="#46494d" d="M 554.5,280.5 C 554.573,282.027 553.906,283.027 552.5,283.5C 552.427,281.973 553.094,280.973 554.5,280.5 Z"/></g>
<g><path style="opacity:0.216" fill="#4f5055" d="M 552.5,283.5 C 552.262,285.404 551.262,286.738 549.5,287.5C 549.738,285.596 550.738,284.262 552.5,283.5 Z"/></g>
<g><path style="opacity:0.114" fill="#3b4041" d="M 471.5,286.5 C 472.906,286.973 473.573,287.973 473.5,289.5C 472.094,289.027 471.427,288.027 471.5,286.5 Z"/></g>
<g><path style="opacity:0.153" fill="#4a4b4f" d="M 547.5,290.5 C 547.573,292.027 546.906,293.027 545.5,293.5C 545.427,291.973 546.094,290.973 547.5,290.5 Z"/></g>
<g><path style="opacity:0.078" fill="#32333b" d="M 57.5,299.5 C 57.573,301.027 56.9063,302.027 55.5,302.5C 55.427,300.973 56.0937,299.973 57.5,299.5 Z"/></g>
<g><path style="opacity:0.125" fill="#3f4044" d="M 970.5,311.5 C 971.906,311.973 972.573,312.973 972.5,314.5C 971.094,314.027 970.427,313.027 970.5,311.5 Z"/></g>
<g><path style="opacity:0.977" fill="#c4c5c9" d="M 749.5,330.5 C 747.535,340.401 744.201,349.735 739.5,358.5C 739.702,356.011 739.202,353.677 738,351.5C 737.107,352.711 736.274,352.711 735.5,351.5C 736.64,349.527 737.973,347.693 739.5,346C 739.167,345.667 738.833,345.333 738.5,345C 740.378,340.644 742.378,336.311 744.5,332C 742.93,330.298 743.263,329.465 745.5,329.5C 746.647,329.818 747.481,330.484 748,331.5C 748.383,330.944 748.883,330.611 749.5,330.5 Z"/></g>
<g><path style="opacity:0.794" fill="#999aa0" d="M 87.5,350.5 C 86.7365,354.137 85.4032,357.47 83.5,360.5C 83.3367,358.143 83.5034,355.81 84,353.5C 84.3333,353.833 84.6667,354.167 85,354.5C 85.1216,352.563 85.955,351.23 87.5,350.5 Z"/></g>
<g><path style="opacity:0.059" fill="#272829" d="M 684.5,357.5 C 684.573,359.027 683.906,360.027 682.5,360.5C 682.427,358.973 683.094,357.973 684.5,357.5 Z"/></g>
<g><path style="opacity:0.045" fill="#36383a" d="M 29.5,365.5 C 29.5905,368.152 28.9238,370.485 27.5,372.5C 27.4095,369.848 28.0762,367.515 29.5,365.5 Z"/></g>
<g><path style="opacity:0.137" fill="#414246" d="M 678.5,367.5 C 678.573,369.027 677.906,370.027 676.5,370.5C 676.427,368.973 677.094,367.973 678.5,367.5 Z"/></g>
<g><path style="opacity:0.006" fill="#3b3e40" d="M 992.5,367.5 C 993.768,369.905 994.435,372.572 994.5,375.5C 992.96,373.162 992.294,370.495 992.5,367.5 Z"/></g>
<g><path style="opacity:0.149" fill="#35383b" d="M 509.5,372.5 C 510.167,372.833 510.833,373.167 511.5,373.5C 510.012,376.186 509.345,375.853 509.5,372.5 Z"/></g>
<g><path style="opacity:0.051" fill="#313233" d="M 670.5,379.5 C 669.92,381.749 668.587,383.415 666.5,384.5C 667.08,382.251 668.413,380.585 670.5,379.5 Z"/></g>
<g><path style="opacity:0.165" fill="#43494c" d="M 666.5,384.5 C 666.573,386.027 665.906,387.027 664.5,387.5C 664.427,385.973 665.094,384.973 666.5,384.5 Z"/></g>
<g><path style="opacity:0.282" fill="#4d5055" d="M 664.5,387.5 C 663.243,390.427 661.243,392.761 658.5,394.5C 659.757,391.573 661.757,389.239 664.5,387.5 Z"/></g>
<g><path style="opacity:0.361" fill="#7b7e83" d="M 998.5,405.5 C 999.81,411.288 1000.48,417.288 1000.5,423.5C 999.054,417.726 998.388,411.726 998.5,405.5 Z"/></g>
<g><path style="opacity:0.031" fill="#2e2f31" d="M 313.5,412.5 C 314.906,412.973 315.573,413.973 315.5,415.5C 314.094,415.027 313.427,414.027 313.5,412.5 Z"/></g>
<g><path style="opacity:0.182" fill="#5d5f64" d="M 73.5,402.5 C 72.9452,410.822 72.6119,419.156 72.5,427.5C 71.8351,424.518 71.5018,421.352 71.5,418C 71.3793,412.589 72.046,407.423 73.5,402.5 Z"/></g>
<g><path style="opacity:0.067" fill="#202023" d="M 602.5,437.5 C 601.341,439.25 599.674,440.25 597.5,440.5C 598.659,438.75 600.326,437.75 602.5,437.5 Z"/></g>
<g><path style="opacity:0.671" fill="#74787b" d="M 597.5,440.5 C 596.263,442.097 594.596,443.263 592.5,444C 591.207,444.49 589.873,444.657 588.5,444.5C 591.088,442.408 594.088,441.075 597.5,440.5 Z"/></g>
<g><path style="opacity:0.251" fill="#8f9095" d="M 22.5,447.5 C 24.2377,452.217 24.9044,457.217 24.5,462.5C 23.5135,457.68 22.8468,452.68 22.5,447.5 Z"/></g>
<g><path style="opacity:0.098" fill="#222425" d="M 655.5,464.5 C 655.833,465.167 656.167,465.833 656.5,466.5C 653.147,466.655 652.814,465.988 655.5,464.5 Z"/></g>
<g><path style="opacity:0.341" fill="#6b6b70" d="M 324.5,469.5 C 322.162,471.04 319.495,471.706 316.5,471.5C 318.905,470.232 321.572,469.565 324.5,469.5 Z"/></g>
<g><path style="opacity:0.2" fill="#6c6d73" d="M 275.5,484.5 C 273.967,486.245 271.967,487.245 269.5,487.5C 271.033,485.755 273.033,484.755 275.5,484.5 Z"/></g>
<g><path style="opacity:0.184" fill="#48484f" d="M 248.5,497.5 C 248.027,498.906 247.027,499.573 245.5,499.5C 245.973,498.094 246.973,497.427 248.5,497.5 Z"/></g>
<g><path style="opacity:0.243" fill="#393a40" d="M 240.5,502.5 C 240.027,503.906 239.027,504.573 237.5,504.5C 237.973,503.094 238.973,502.427 240.5,502.5 Z"/></g>
<g><path style="opacity:0.251" fill="#3f4044" d="M 234.5,506.5 C 234.027,507.906 233.027,508.573 231.5,508.5C 231.973,507.094 232.973,506.427 234.5,506.5 Z"/></g>
<g><path style="opacity:0.196" fill="#4d4f53" d="M 231.5,508.5 C 230.738,510.262 229.404,511.262 227.5,511.5C 228.262,509.738 229.596,508.738 231.5,508.5 Z"/></g>
<g><path style="opacity:0.208" fill="#35363c" d="M 220.5,516.5 C 219.415,518.587 217.749,519.92 215.5,520.5C 216.585,518.413 218.251,517.08 220.5,516.5 Z"/></g>
<g><path style="opacity:0.29" fill="#484a4e" d="M 215.5,520.5 C 214.089,522.914 212.089,524.581 209.5,525.5C 210.911,523.086 212.911,521.419 215.5,520.5 Z"/></g>
<g><path style="opacity:0.251" fill="#46474c" d="M 209.5,525.5 C 207.431,528.573 204.764,530.906 201.5,532.5C 203.569,529.427 206.236,527.094 209.5,525.5 Z"/></g>
<g><path style="opacity:0.149" fill="#4f5054" d="M 916.5,538.5 C 916.573,540.027 915.906,541.027 914.5,541.5C 914.427,539.973 915.094,538.973 916.5,538.5 Z"/></g>
<g><path style="opacity:0.911" fill="#b9bbbe" d="M 823.5,535.5 C 829.538,540.537 834.871,546.203 839.5,552.5C 839.5,552.833 839.5,553.167 839.5,553.5C 834.271,550.445 829.771,546.445 826,541.5C 825.667,541.833 825.333,542.167 825,542.5C 823.798,540.323 823.298,537.989 823.5,535.5 Z"/></g>
<g><path style="opacity:0.184" fill="#4a4b4f" d="M 911.5,545.5 C 911.262,547.404 910.262,548.738 908.5,549.5C 908.738,547.596 909.738,546.262 911.5,545.5 Z"/></g>
<g><path style="opacity:0.145" fill="#3b3c40" d="M 189.5,544.5 C 188.243,547.427 186.243,549.761 183.5,551.5C 184.757,548.573 186.757,546.239 189.5,544.5 Z"/></g>
<g><path style="opacity:0.106" fill="#3c4145" d="M 426.5,547.5 C 425.92,549.749 424.587,551.415 422.5,552.5C 423.08,550.251 424.413,548.585 426.5,547.5 Z"/></g>
<g><path style="opacity:0.216" fill="#323337" d="M 908.5,549.5 C 908.262,551.404 907.262,552.738 905.5,553.5C 905.738,551.596 906.738,550.262 908.5,549.5 Z"/></g>
<g><path style="opacity:0.11" fill="#3f4044" d="M 112.5,548.5 C 114.587,549.585 115.92,551.251 116.5,553.5C 114.413,552.415 113.08,550.749 112.5,548.5 Z"/></g>
<g><path style="opacity:0.22" fill="#2a2c2e" d="M 839.5,552.5 C 841.262,553.262 842.262,554.596 842.5,556.5C 841.167,555.833 840.167,554.833 839.5,553.5C 839.5,553.167 839.5,552.833 839.5,552.5 Z"/></g>
<g><path style="opacity:0.153" fill="#3b3c44" d="M 420.5,554.5 C 420.573,556.027 419.906,557.027 418.5,557.5C 418.427,555.973 419.094,554.973 420.5,554.5 Z"/></g>
<g><path style="opacity:0.282" fill="#4e4f53" d="M 905.5,553.5 C 904.581,556.089 902.914,558.089 900.5,559.5C 901.419,556.911 903.086,554.911 905.5,553.5 Z"/></g>
<g><path style="opacity:0.173" fill="#373a3d" d="M 116.5,553.5 C 119.243,555.239 121.243,557.573 122.5,560.5C 119.757,558.761 117.757,556.427 116.5,553.5 Z"/></g>
<g><path style="opacity:0.863" fill="#9a9c9f" d="M 601.5,554.5 C 604.805,558.141 608.138,561.808 611.5,565.5C 609.914,564.587 608.414,564.587 607,565.5C 606,563.833 605,562.167 604,560.5C 603.282,561.451 602.449,561.617 601.5,561C 602.357,560.311 603.023,559.478 603.5,558.5C 602.37,557.378 601.703,556.044 601.5,554.5 Z"/></g>
<g><path style="opacity:0.09" fill="#1f1f25" d="M 844.5,558.5 C 845.906,558.973 846.573,559.973 846.5,561.5C 845.094,561.027 844.427,560.027 844.5,558.5 Z"/></g>
<g><path style="opacity:0.255" fill="#545559" d="M 416.5,559.5 C 414.833,563.167 412.167,565.833 408.5,567.5C 410.833,564.5 413.5,561.833 416.5,559.5 Z"/></g>
<g><path style="opacity:0.11" fill="#34353a" d="M 846.5,561.5 C 847.906,561.973 848.573,562.973 848.5,564.5C 847.094,564.027 846.427,563.027 846.5,561.5 Z"/></g>
<g><path style="opacity:0.427" fill="#6b6d71" d="M 900.5,559.5 C 899.316,560.688 899.316,561.855 900.5,563C 896.011,565.994 891.678,569.161 887.5,572.5C 891.548,567.785 895.881,563.452 900.5,559.5 Z"/></g>
<g><path style="opacity:0.149" fill="#484a51" d="M 848.5,564.5 C 850.262,565.262 851.262,566.596 851.5,568.5C 849.738,567.738 848.738,566.404 848.5,564.5 Z"/></g>
<g><path style="opacity:0.102" fill="#2e3036" d="M 851.5,568.5 C 852.906,568.973 853.573,569.973 853.5,571.5C 852.094,571.027 851.427,570.027 851.5,568.5 Z"/></g>
<g><path style="opacity:0.18" fill="#4b4c50" d="M 400.5,575.5 C 399.415,577.587 397.749,578.92 395.5,579.5C 396.585,577.413 398.251,576.08 400.5,575.5 Z"/></g>
<g><path style="opacity:0.169" fill="#343439" d="M 395.5,579.5 C 394.415,581.587 392.749,582.92 390.5,583.5C 391.585,581.413 393.251,580.08 395.5,579.5 Z"/></g>
<g><path style="opacity:0.797" fill="#b7b9bd" d="M 961.5,561.5 C 956.142,570.885 949.808,579.551 942.5,587.5C 942.67,586.178 942.337,585.011 941.5,584C 942.449,583.383 943.282,583.549 944,584.5C 944.346,582.782 944.846,581.115 945.5,579.5C 946.274,578.289 947.107,578.289 948,579.5C 948.644,576.453 950.144,573.953 952.5,572C 951.549,571.282 951.383,570.449 952,569.5C 953.896,567.47 956.063,565.803 958.5,564.5C 957.189,563.742 956.689,562.742 957,561.5C 958.432,559.069 959.932,559.069 961.5,561.5 Z"/></g>
<g><path style="opacity:0.184" fill="#313438" d="M 390.5,583.5 C 389.738,585.262 388.404,586.262 386.5,586.5C 387.262,584.738 388.596,583.738 390.5,583.5 Z"/></g>
<g><path style="opacity:0.184" fill="#2a2b30" d="M 386.5,586.5 C 385.738,588.262 384.404,589.262 382.5,589.5C 383.262,587.738 384.596,586.738 386.5,586.5 Z"/></g>
<g><path style="opacity:0.035" fill="#1c1c1d" d="M 202.5,611.5 C 202.557,612.609 202.89,613.609 203.5,614.5C 201.448,613.947 201.115,612.947 202.5,611.5 Z"/></g>
<g><path style="opacity:0.384" fill="#555759" d="M 819.5,611.5 C 820.851,614.828 819.517,616.161 815.5,615.5C 817.297,614.607 818.63,613.274 819.5,611.5 Z"/></g>
<g><path style="opacity:0.031" fill="#232529" d="M 606.5,628.5 C 605.508,628.328 604.842,628.662 604.5,629.5C 601.749,623.445 602.416,623.111 606.5,628.5 Z"/></g>
<g><path style="opacity:0.094" fill="#23292c" d="M 416.5,631.5 C 416.737,630.209 416.404,629.209 415.5,628.5C 416.517,626.401 417.85,625.401 419.5,625.5C 418.864,627.78 417.864,629.78 416.5,631.5 Z"/></g>
<g><path style="opacity:0.455" fill="#696c6f" d="M 130.5,654.5 C 130.829,657.228 130.163,659.562 128.5,661.5C 128.721,658.933 129.388,656.599 130.5,654.5 Z"/></g>
<g><path style="opacity:0.852" fill="#b1b2b7" d="M 367.5,655.5 C 356.748,660.864 345.414,664.864 333.5,667.5C 334.136,664.674 335.636,664.008 338,665.5C 339.826,664.99 339.993,664.156 338.5,663C 340.949,662.275 343.283,661.275 345.5,660C 349.397,659.7 352.897,658.533 356,656.5C 356.388,657.428 357.055,658.095 358,658.5C 360.75,656.194 363.917,655.194 367.5,655.5 Z"/></g>
<g><path style="opacity:0.216" fill="#74757c" d="M 405.5,745.5 C 407.082,748.876 407.749,752.542 407.5,756.5C 406.313,753.054 405.646,749.387 405.5,745.5 Z"/></g>
<g><path style="opacity:0.698" fill="#696b6f" d="M 824.5,805.5 C 824.264,808.621 822.931,810.954 820.5,812.5C 821.079,809.669 822.412,807.336 824.5,805.5 Z"/></g>
<g><path style="opacity:0.059" fill="#19191b" d="M 820.5,812.5 C 820.573,814.027 819.906,815.027 818.5,815.5C 818.427,813.973 819.094,812.973 820.5,812.5 Z"/></g>
<g><path style="opacity:0.122" fill="#38393a" d="M 202.5,814.5 C 203.906,814.973 204.573,815.973 204.5,817.5C 203.094,817.027 202.427,816.027 202.5,814.5 Z"/></g>
<g><path style="opacity:0.106" fill="#232425" d="M 482.5,815.5 C 483.906,815.973 484.573,816.973 484.5,818.5C 483.094,818.027 482.427,817.027 482.5,815.5 Z"/></g>
<g><path style="opacity:0.141" fill="#2f3036" d="M 539.5,815.5 C 539.573,817.027 538.906,818.027 537.5,818.5C 537.427,816.973 538.094,815.973 539.5,815.5 Z"/></g>
<g><path style="opacity:0.137" fill="#222225" d="M 818.5,815.5 C 816.281,820.709 813.281,825.376 809.5,829.5C 811.719,824.291 814.719,819.624 818.5,815.5 Z"/></g>
<g><path style="opacity:0.122" fill="#33383a" d="M 204.5,817.5 C 205.906,817.973 206.573,818.973 206.5,820.5C 205.094,820.027 204.427,819.027 204.5,817.5 Z"/></g>
<g><path style="opacity:0.09" fill="#242527" d="M 484.5,818.5 C 485.906,818.973 486.573,819.973 486.5,821.5C 485.094,821.027 484.427,820.027 484.5,818.5 Z"/></g>
<g><path style="opacity:0.169" fill="#404348" d="M 537.5,818.5 C 537.573,820.027 536.906,821.027 535.5,821.5C 535.427,819.973 536.094,818.973 537.5,818.5 Z"/></g>
<g><path style="opacity:0.141" fill="#202024" d="M 486.5,821.5 C 487.906,821.973 488.573,822.973 488.5,824.5C 487.094,824.027 486.427,823.027 486.5,821.5 Z"/></g>
<g><path style="opacity:0.208" fill="#3f4047" d="M 535.5,821.5 C 535.262,823.404 534.262,824.738 532.5,825.5C 532.738,823.596 533.738,822.262 535.5,821.5 Z"/></g>
<g><path style="opacity:0.987" fill="#c1c3c6" d="M 877.5,812.5 C 872.028,825.269 865.361,837.269 857.5,848.5C 857.162,845.843 857.829,843.51 859.5,841.5C 859.291,840.914 858.957,840.414 858.5,840C 863.322,835.62 866.156,830.12 867,823.5C 867.667,824.833 868.333,824.833 869,823.5C 869.29,821.956 869.956,820.623 871,819.5C 871.333,820.167 871.667,820.833 872,821.5C 872.559,817.814 873.226,814.147 874,810.5C 874.71,811.973 875.876,812.64 877.5,812.5 Z"/></g>
<g><path style="opacity:0.919" fill="#b1b2b7" d="M 594.5,820.5 C 590.923,828.661 586.589,836.328 581.5,843.5C 579.8,839.769 580.8,836.936 584.5,835C 584.167,834.667 583.833,834.333 583.5,834C 586.668,833.418 587.001,832.418 584.5,831C 585.759,830.077 587.092,829.243 588.5,828.5C 587.754,827.264 587.421,825.93 587.5,824.5C 588.873,824.657 590.207,824.49 591.5,824C 591.043,823.586 590.709,823.086 590.5,822.5C 591.766,821.638 593.099,820.971 594.5,820.5 Z"/></g>
<g><path style="opacity:0.129" fill="#2e2e30" d="M 488.5,824.5 C 489.906,824.973 490.573,825.973 490.5,827.5C 489.094,827.027 488.427,826.027 488.5,824.5 Z"/></g>
<g><path style="opacity:0.129" fill="#242527" d="M 532.5,825.5 C 532.573,827.027 531.906,828.027 530.5,828.5C 530.427,826.973 531.094,825.973 532.5,825.5 Z"/></g>
<g><path style="opacity:0.188" fill="#373a3c" d="M 490.5,827.5 C 492.262,828.262 493.262,829.596 493.5,831.5C 491.738,830.738 490.738,829.404 490.5,827.5 Z"/></g>
<g><path style="opacity:0.122" fill="#2a2b2d" d="M 530.5,828.5 C 530.573,830.027 529.906,831.027 528.5,831.5C 528.427,829.973 529.094,828.973 530.5,828.5 Z"/></g>
<g><path style="opacity:0.165" fill="#34373c" d="M 528.5,831.5 C 528.573,833.027 527.906,834.027 526.5,834.5C 526.427,832.973 527.094,831.973 528.5,831.5 Z"/></g>
<g><path style="opacity:0.996" fill="#96989c" d="M 809.5,829.5 C 809.461,830.583 809.127,831.583 808.5,832.5C 809.025,833.192 809.692,833.692 810.5,834C 807.884,833.971 805.551,835.138 803.5,837.5C 805.016,834.467 807.016,831.8 809.5,829.5 Z"/></g>
<g><path style="opacity:0.125" fill="#35363b" d="M 496.5,835.5 C 497.906,835.973 498.573,836.973 498.5,838.5C 497.094,838.027 496.427,837.027 496.5,835.5 Z"/></g>
<g><path style="opacity:0.004" fill="#232325" d="M 185.5,876.5 C 187.587,877.585 188.92,879.251 189.5,881.5C 187.413,880.415 186.08,878.749 185.5,876.5 Z"/></g>
<g><path style="opacity:0.657" fill="#a1a3a8" d="M 452.5,946.5 C 443.582,950.273 434.249,952.94 424.5,954.5C 425.276,952.026 426.776,951.359 429,952.5C 436.769,950.233 444.602,948.233 452.5,946.5 Z"/></g>
</svg>
