<?xml version="1.0" encoding="UTF-8"?>
<svg version="1.1" xmlns="http://www.w3.org/2000/svg" width="1024" height="1024">
<path d="M0 0 C0.72268066 0.48082031 1.44536133 0.96164063 2.18994141 1.45703125 C12.39738127 8.31172841 21.85577964 15.79092203 31 24 C31.5455957 24.48388184 32.09119141 24.96776367 32.65332031 25.46630859 C38.86576702 30.97962324 44.66745273 36.61860803 50 43 C50.8870278 44.00463528 51.77657591 45.00704821 52.66796875 46.0078125 C72.06160586 67.918816 90.58115193 95.38987819 98 124 C99.12136353 123.97643433 99.12136353 123.97643433 100.26538086 123.95239258 C152.91489869 123.00024182 206.82219626 135.47334965 250 167 C250.61681641 167.44988281 251.23363281 167.89976562 251.86914062 168.36328125 C256.01010565 171.395988 260.11028092 174.47788757 264.18115234 177.60400391 C265.72552185 178.78933341 267.27793075 179.96417672 268.83203125 181.13671875 C281.8980942 191.35273418 294.04603862 203.7567538 304 217 C304.76425293 217.9902417 304.76425293 217.9902417 305.54394531 219.00048828 C314.39106434 230.47149646 322.14198517 242.24012243 329 255 C329.36818848 255.68126953 329.73637695 256.36253906 330.11572266 257.06445312 C341.64509858 278.62560755 349.65280814 301.88479728 354.3125 325.875 C354.45977539 326.63288818 354.60705078 327.39077637 354.75878906 328.17163086 C357.4511752 343.15472821 358.40983923 358.11522272 358.375 373.3125 C358.37478851 374.17452026 358.37457703 375.03654053 358.37435913 375.92468262 C358.22852901 435.99563439 335.9335992 495.3655065 295.08984375 539.7265625 C293.14128585 541.84630212 291.25242667 544.00483469 289.375 546.1875 C276.69017972 560.70943219 261.19519256 572.64812783 245 583 C245.23074219 583.85335937 245.46148438 584.70671875 245.69921875 585.5859375 C263.02074323 651.99652541 258.39365262 718.91574649 226 780 C225.38640625 781.15757812 224.7728125 782.31515625 224.140625 783.5078125 C216.5468558 797.28328638 207.2694468 810.09807182 197 822 C196.35417969 822.75667969 195.70835937 823.51335938 195.04296875 824.29296875 C184.02215329 836.87313477 172.19099004 848.87294782 158.6796875 858.76904297 C157.0029241 859.99785707 155.34512847 861.24944508 153.6875 862.50390625 C144.29092466 869.51404976 134.26711372 875.36435437 124 881 C123.33274902 881.36867188 122.66549805 881.73734375 121.97802734 882.1171875 C96.69240199 895.91760062 68.39836577 903.96255685 40 908 C39.16678223 908.11859375 38.33356445 908.2371875 37.47509766 908.359375 C-9.48523836 914.71533589 -58.45679003 906.62673371 -101 886 C-102.38907839 885.34453362 -103.77839124 884.68956384 -105.16796875 884.03515625 C-128.2018584 873.01466783 -128.2018584 873.01466783 -137.203125 865.05078125 C-137.79609375 864.70402344 -138.3890625 864.35726562 -139 864 C-142.48866498 865.14095393 -145.44281318 866.78008718 -148.51953125 868.7578125 C-149.79304443 869.56665894 -149.79304443 869.56665894 -151.09228516 870.3918457 C-151.98995605 870.96378662 -152.88762695 871.53572754 -153.8125 872.125 C-162.649923 877.66302716 -171.51207803 882.67624466 -181 887 C-181.69673828 887.32274902 -182.39347656 887.64549805 -183.11132812 887.97802734 C-241.42294298 914.72372558 -310.4303927 917.64679578 -370.82421875 895.96875 C-398.3743105 885.66451948 -423.45281371 871.95775787 -446 853 C-446.81380127 852.319375 -446.81380127 852.319375 -447.64404297 851.625 C-457.51016745 843.35522254 -466.65368246 834.82628312 -475 825 C-475.73863281 824.15050781 -476.47726562 823.30101562 -477.23828125 822.42578125 C-515.89924371 777.22883471 -536.20712472 720.08866739 -536.25 660.8125 C-536.25067474 659.97129608 -536.25134949 659.13009216 -536.25204468 658.26339722 C-536.22105254 633.84999279 -533.37487404 609.42666307 -525.47070312 586.20458984 C-524.93897218 583.7141695 -525.07957744 582.36098795 -526 580 C-528.151476 578.07445655 -528.151476 578.07445655 -530.875 576.3125 C-540.78075804 569.38870788 -550.53132739 561.66523754 -559 553 C-559 552.34 -559 551.68 -559 551 C-559.5775 550.75636719 -560.155 550.51273438 -560.75 550.26171875 C-565.41120343 547.64788419 -568.58830183 543.04085875 -572 539 C-572.45971191 538.45649902 -572.91942383 537.91299805 -573.39306641 537.35302734 C-611.82443466 491.51445951 -632.56644557 434.57180597 -632.3125 374.8125 C-632.31067719 373.91647064 -632.30885437 373.02044128 -632.30697632 372.09725952 C-632.25951978 358.20300446 -631.66738871 344.67069823 -629 331 C-628.83902832 330.13101074 -628.67805664 329.26202148 -628.51220703 328.36669922 C-620.37233105 285.3997266 -601.09899316 244.68240033 -572 212 C-571.47446533 211.39051514 -570.94893066 210.78103027 -570.4074707 210.15307617 C-559.43816194 197.44694724 -547.52295439 185.94334882 -534 176 C-533.0925 175.3090625 -532.185 174.618125 -531.25 173.90625 C-500.6049544 150.9224658 -464.60673798 135.93566889 -427 129 C-426.15824219 128.84305664 -425.31648437 128.68611328 -424.44921875 128.52441406 C-407.10684605 125.4275618 -389.56562542 125.28961361 -372 125 C-371.42209717 123.53566528 -371.42209717 123.53566528 -370.83251953 122.04174805 C-355.81513671 84.13766047 -333.02325321 47.06291844 -301 21 C-299.88599877 20.05162632 -298.77279919 19.10231062 -297.66015625 18.15234375 C-218.13190261 -48.96398591 -98.00081059 -60.09136595 0 0 Z M-291 76 C-294.94061619 80.4671093 -298.5360226 85.15727744 -302 90 C-302.41797852 90.5789502 -302.83595703 91.15790039 -303.26660156 91.75439453 C-312.12500891 104.15140589 -319.90853598 117.60965635 -325 132 C-320.15228868 133.62425901 -315.29994002 135.22930562 -310.43359375 136.796875 C-298.64961503 140.61807234 -287.18308436 144.66235353 -276 150 C-275.35160156 150.30373535 -274.70320313 150.6074707 -274.03515625 150.92041016 C-217.30472645 177.61301736 -171.66133831 227.47475302 -149.79882812 286.22802734 C-144.88754945 299.94228191 -140.67794153 313.67394915 -138 328 C-135.61157388 325.61157388 -135.4434596 324.30597408 -134.73828125 321.0390625 C-134.51035889 320.02030029 -134.28243652 319.00153809 -134.04760742 317.9519043 C-133.80502197 316.85402588 -133.56243652 315.75614746 -133.3125 314.625 C-123.7710406 273.42578445 -103.57596218 236.48949813 -75.1015625 205.32421875 C-73.26615163 203.29434985 -71.50618556 201.2229064 -69.75 199.125 C-38.59861921 163.73533611 6.35023735 143.07239492 51 131 C49.14338695 124.88519816 46.85606587 119.30295459 43.8125 113.6875 C43.41667725 112.95112305 43.02085449 112.21474609 42.61303711 111.45605469 C34.21927177 96.06664669 23.554417 82.17325355 11.45947266 69.52685547 C10.47491573 68.49684225 9.4955186 67.46187541 8.52099609 66.42236328 C-8.63486167 48.16755377 -29.37835529 34.5431459 -52 24 C-53.70736328 23.19949219 -53.70736328 23.19949219 -55.44921875 22.3828125 C-137.76908681 -14.5224942 -231.2059246 11.50081702 -291 76 Z M110 170 C110.2165625 171.63001953 110.2165625 171.63001953 110.4375 173.29296875 C117.77606261 234.53245835 105.85001091 300.43210181 69 351 C68.35708008 351.89332031 68.35708008 351.89332031 67.70117188 352.8046875 C41.89542419 388.5522879 41.89542419 388.5522879 31 394 C31 394.66 31 395.32 31 396 C30.47664062 396.2165625 29.95328125 396.433125 29.4140625 396.65625 C26.04220953 398.53313903 23.28744997 400.9841113 20.375 403.5 C19.49714844 404.24830078 19.49714844 404.24830078 18.6015625 405.01171875 C16.33503982 406.9507393 14.10986956 408.89013044 12 411 C12.80816162 411.06469482 13.61632324 411.12938965 14.44897461 411.19604492 C61.59584038 415.07912012 109.16952522 426.48222584 148 455 C148.92087402 455.66467285 148.92087402 455.66467285 149.86035156 456.34277344 C157.83814929 462.10943843 165.45662068 468.04508891 172.63671875 474.7890625 C174.64547922 476.66833263 176.69665713 478.43246402 178.8125 480.1875 C197.79230303 496.75098314 212.55390684 518.2739251 225 540 C229.97749261 537.31981167 234.19071385 534.40424489 238.4375 530.6875 C239.28272217 529.95793091 239.28272217 529.95793091 240.14501953 529.21362305 C241.26164984 528.24862005 242.37630724 527.28132841 243.48876953 526.31152344 C244.77211877 525.19776704 246.07009913 524.10090518 247.37109375 523.0078125 C251.36510223 519.62886575 254.86636132 516.05899377 258.2421875 512.0625 C259.38351053 510.72334765 260.55439728 509.4086429 261.7578125 508.125 C273.70834397 495.32443072 283.03337901 480.52180315 291 465 C291.32162109 464.38656738 291.64324219 463.77313477 291.97460938 463.14111328 C304.44739023 439.14630192 312.03713053 410.63227266 312.203125 383.546875 C312.21371445 382.38591057 312.21371445 382.38591057 312.22451782 381.20149231 C312.43616324 356.9488822 312.43616324 356.9488822 309 333 C308.80132324 332.08831055 308.60264648 331.17662109 308.39794922 330.23730469 C302.6618688 304.70637597 292.50688423 279.22638591 277 258 C276.31550781 257.04351562 275.63101562 256.08703125 274.92578125 255.1015625 C263.63430367 239.65433464 251.03283271 225.87754563 236 214 C235.03578125 213.20722656 234.0715625 212.41445313 233.078125 211.59765625 C201.96029229 186.60071703 158.60770809 169.512907 118.5 169.9375 C117.67757812 169.94201172 116.85515625 169.94652344 116.0078125 169.95117188 C114.00517604 169.96281511 112.00257773 169.98074444 110 170 Z M-527 231 C-527.7321875 231.68964844 -528.464375 232.37929688 -529.21875 233.08984375 C-549.47340622 252.74168282 -563.87652305 277.88724933 -574 304 C-574.29245605 304.75071777 -574.58491211 305.50143555 -574.88623047 306.27490234 C-592.92271125 353.60339317 -590.21423829 409.9612357 -570.18359375 456.1262207 C-556.2199884 487.15755674 -534.51602099 518.48903827 -506 538 C-505.34 538 -504.68 538 -504 538 C-502.82161396 536.48452563 -502.82161396 536.48452563 -501.71484375 534.484375 C-501.27124512 533.73357666 -500.82764648 532.98277832 -500.37060547 532.20922852 C-499.89768066 531.39768311 -499.42475586 530.5861377 -498.9375 529.75 C-494.37160058 522.10095714 -489.55997925 514.97251452 -484 508 C-483.29488281 507.1028125 -482.58976562 506.205625 -481.86328125 505.28125 C-475.92516541 497.86127042 -469.5406141 490.88700176 -463 484 C-462.21496094 483.17242188 -461.42992187 482.34484375 -460.62109375 481.4921875 C-455.11825865 475.84169135 -449.1856371 470.88383412 -443 466 C-442.05898438 465.23042969 -441.11796875 464.46085937 -440.1484375 463.66796875 C-395.24547011 427.75719767 -341.35679472 413.87183252 -285 411 C-288.20647236 407.71322243 -291.47554598 404.67873683 -295.0625 401.8125 C-295.89910156 401.13832031 -296.73570312 400.46414063 -297.59765625 399.76953125 C-299.68555371 398.23161654 -301.64365057 397.06117353 -304 396 C-304 395.34 -304 394.68 -304 394 C-305.48361694 392.49950064 -305.48361694 392.49950064 -307.4375 390.9375 C-315.90081486 383.71090192 -323.13540349 375.74139556 -330 367 C-330.50080078 366.37029297 -331.00160156 365.74058594 -331.51757812 365.09179688 C-339.15546447 355.46861155 -346.07777411 345.76724626 -352 335 C-352.4626123 334.16758789 -352.92522461 333.33517578 -353.40185547 332.47753906 C-368.27940693 305.51106929 -378.16975015 277.41849842 -383 247 C-383.11859375 246.28360352 -383.2371875 245.56720703 -383.359375 244.82910156 C-387.06375122 221.44522667 -386.57858219 195.35663911 -383 172 C-438.15253942 170.29815021 -487.49408854 193.7690076 -527 231 Z M-14.38037109 210.73876953 C-15.80965496 211.85177533 -17.25705584 212.94143143 -18.70703125 214.02734375 C-60.14206699 246.16972938 -86.86118287 295.00945487 -93.875 346.6875 C-96.15912627 365.70454577 -98.1685433 389.49437009 -92 408 C-58.51521501 405.07452882 -24.50035543 383.43115307 -0.2734375 361.0859375 C1.8389424 359.1477745 3.99998072 357.28976729 6.1875 355.4375 C10.19545209 351.93354188 13.58859703 348.07687172 17 344 C17.76183594 343.12601563 18.52367187 342.25203125 19.30859375 341.3515625 C50.10873246 305.50615926 67.19066889 259.2046692 67.18530273 212.02539062 C67.18747493 209.89953125 67.20565568 207.7742047 67.22460938 205.6484375 C67.75331207 189.90995317 67.75331207 189.90995317 64 175 C37.58151429 175 5.85470508 194.95756338 -14.38037109 210.73876953 Z M-338 177 C-339.56026519 187.73787541 -340.37248424 198.19637069 -340.3125 209.0625 C-340.31034485 209.77444519 -340.3081897 210.48639038 -340.30596924 211.21990967 C-340.08560767 256.95958396 -324.80316451 304.45126013 -294 339 C-293.23816406 339.85851562 -292.47632813 340.71703125 -291.69140625 341.6015625 C-290.17580731 343.29351275 -288.65263716 344.97871891 -287.12109375 346.65625 C-285.18168497 348.79924312 -283.30670701 350.98344638 -281.4375 353.1875 C-277.92268128 357.19646557 -274.11000065 360.61185073 -270 364 C-269.484375 364.43328613 -268.96875 364.86657227 -268.4375 365.31298828 C-259.12832058 373.11736 -249.5384171 379.95546339 -239 386 C-238.22446777 386.44730469 -237.44893555 386.89460937 -236.64990234 387.35546875 C-226.39133252 393.19298129 -215.9746213 398.03536467 -204.875 402.0625 C-203.85672119 402.4325415 -202.83844238 402.80258301 -201.78930664 403.18383789 C-195.34323237 405.42744084 -188.8206725 407.34155689 -182 408 C-176.64768073 402.64768073 -178.7262269 382.95029548 -178.6875 375.9375 C-178.83085101 325.52029856 -196.44464201 276.64454318 -230.78125 239.40625 C-233.08319668 236.90977261 -235.31990542 234.36229931 -237.5625 231.8125 C-241.45801164 227.50200258 -245.49492513 223.66272364 -250 220 C-250.49097168 219.59668457 -250.98194336 219.19336914 -251.48779297 218.77783203 C-259.94176025 211.86049019 -268.64872179 205.64240659 -278 200 C-278.61037109 199.62633301 -279.22074219 199.25266602 -279.84960938 198.86767578 C-295.96586635 189.07684091 -318.7893068 177 -338 177 Z M-326 460 C-326.82387207 460.16628906 -327.64774414 460.33257813 -328.49658203 460.50390625 C-360.14196847 467.15960583 -390.19724579 481.20577172 -415 502 C-415.55510254 502.46486816 -416.11020508 502.92973633 -416.68212891 503.40869141 C-426.71826477 511.79917865 -426.71826477 511.79917865 -436 521 C-436.53367187 521.57492187 -437.06734375 522.14984375 -437.6171875 522.7421875 C-448.24010526 534.53999018 -456.7257507 547.50453228 -465 561 C-462.92535433 563.07464567 -461.80279783 563.58983747 -459.09765625 564.55078125 C-458.29972656 564.83469727 -457.50179687 565.11861328 -456.6796875 565.41113281 C-455.81601562 565.70858398 -454.95234375 566.00603516 -454.0625 566.3125 C-452.71865234 566.7760791 -452.71865234 566.7760791 -451.34765625 567.24902344 C-436.49861227 572.28038841 -421.73783604 575.71860173 -406.18652344 577.71777344 C-404.15432103 577.98008094 -402.12575632 578.27016125 -400.09765625 578.5625 C-350.84479277 584.58425834 -297.8593062 567.3689976 -258.9921875 537.40234375 C-241.30015885 523.19790822 -226.83018249 507.94722229 -213.5625 489.5625 C-213.16144043 489.00771973 -212.76038086 488.45293945 -212.34716797 487.88134766 C-209.61736816 484.03748506 -207.12101011 480.20692077 -205 476 C-205.69607601 472.74650113 -205.69607601 472.74650113 -208.78125 471.5703125 C-225.54391663 465.05541055 -242.20095625 460.71364492 -260 458 C-260.68296143 457.89397461 -261.36592285 457.78794922 -262.06958008 457.67871094 C-269.89010012 456.6360995 -277.81166596 456.7561451 -285.6875 456.75 C-286.46489532 456.74932526 -287.24229065 456.74865051 -288.04324341 456.74795532 C-300.89572395 456.76562639 -313.37029658 457.4382554 -326 460 Z M-70 471 C-62.35540761 488.46185841 -48.96216706 503.28546065 -36 517 C-35.19691406 517.85722656 -34.39382813 518.71445312 -33.56640625 519.59765625 C-22.77125502 530.78278011 -10.13579073 539.77320323 3 548 C3.59941406 548.37866211 4.19882812 548.75732422 4.81640625 549.14746094 C50.16766974 577.38180586 106.79727045 583.4190939 158.18359375 571.5078125 C167.00791121 569.32511913 175.51182128 566.22606573 184 563 C183.44454843 559.41005759 182.5821711 556.93577498 180.55859375 553.92578125 C180.06141846 553.18070313 179.56424316 552.435625 179.05200195 551.66796875 C178.51921631 550.89066406 177.98643066 550.11335937 177.4375 549.3125 C176.89246826 548.508125 176.34743652 547.70375 175.78588867 546.875 C171.78496307 541.02281167 167.63601198 535.36901593 163 530 C162.34128906 529.23171875 161.68257812 528.4634375 161.00390625 527.671875 C158.7150978 525.06809292 156.37311693 522.52726199 154 520 C153.50790039 519.47390137 153.01580078 518.94780273 152.50878906 518.40576172 C134.92653468 499.76297331 114.12745648 485.84028317 91 475 C90.0419043 474.54197998 90.0419043 474.54197998 89.06445312 474.07470703 C71.1973872 465.58104853 52.52090955 460.90556606 33 458 C32.32138916 457.8954248 31.64277832 457.79084961 30.94360352 457.68310547 C23.1179447 456.63868783 15.19358847 456.7561492 7.3125 456.75 C6.53510468 456.74932526 5.75770935 456.74865051 4.95675659 456.74795532 C-21.27135005 456.78401674 -45.48377292 461.75877969 -70 471 Z M-141 519 C-152.72505799 531.17863857 -162.53720892 544.34279482 -171 559 C-171.65613281 560.1240625 -172.31226563 561.248125 -172.98828125 562.40625 C-187.54990553 588.06497033 -197.0219891 619.86261509 -197.203125 649.453125 C-197.21013931 650.22723724 -197.21715363 651.00134949 -197.22438049 651.79891968 C-197.24177625 654.28267312 -197.24823265 656.76618788 -197.25 659.25 C-197.25067474 660.10003601 -197.25134949 660.95007202 -197.25204468 661.8258667 C-197.23571406 674.77711178 -196.72688947 687.29708193 -194 700 C-193.83902832 700.79325684 -193.67805664 701.58651367 -193.51220703 702.40380859 C-185.91277424 739.05774909 -167.94678346 774.73936149 -141 801 C-120.64764638 792.39464243 -105.02857621 755.59734223 -97.20678711 736.33422852 C-76.96834902 684.92318118 -78.07031573 627.85540665 -100.0625 577.15234375 C-108.09211026 559.30694832 -122.55772494 528.22113753 -141 519 Z M-57 561 C-55.48253469 565.58960896 -53.94629841 570.17097685 -52.3515625 574.734375 C-42.75781512 602.42792191 -37.7750426 630.35667581 -37.75 659.6875 C-37.74932526 660.4065451 -37.74865051 661.12559021 -37.74795532 661.86642456 C-37.76795592 675.4116905 -38.76305357 688.62497077 -41 702 C-41.16097168 702.97662598 -41.32194336 703.95325195 -41.48779297 704.95947266 C-49.1443222 749.64094728 -69.49358017 791.78898626 -100.05859375 825.25390625 C-101.43761186 826.77942513 -102.73260603 828.38055215 -104 830 C-102.53518877 834.39443368 -99.12599492 835.52430094 -95.25 837.625 C-94.05346802 838.27988403 -94.05346802 838.27988403 -92.83276367 838.94799805 C-44.31609794 864.9496273 12.28118651 871.80730086 65.24462891 855.86230469 C107.11383277 842.75916557 143.97485866 817.40794288 170 782 C170.78117187 780.94039062 171.56234375 779.88078125 172.3671875 778.7890625 C204.08089876 734.34597233 216.19928797 679.50582704 207.47509766 625.70507812 C206.31099628 619.07699834 205.07988948 612.40808056 203 606 C201.03587291 604.74490582 201.03587291 604.74490582 198.88720703 605.54150391 C198.01950684 605.85007324 197.15180664 606.15864258 196.2578125 606.4765625 C195.28432861 606.81534424 194.31084473 607.15412598 193.30786133 607.50317383 C192.25751709 607.87337646 191.20717285 608.2435791 190.125 608.625 C127.15326534 630.13452021 58.02694532 625.87967133 -2 597 C-19.79780324 587.99768778 -39.72574589 576.89090324 -53.6328125 562.28515625 C-54.93014472 560.77169666 -54.93014472 560.77169666 -57 561 Z M-229 572 C-230.16402344 572.81791016 -230.16402344 572.81791016 -231.3515625 573.65234375 C-234.88797637 576.12108136 -238.43998481 578.5654944 -242 581 C-243.57007813 582.07894531 -243.57007813 582.07894531 -245.171875 583.1796875 C-269.68834872 599.50407122 -296.7423683 610.60046171 -325.25 617.625 C-326.40810181 617.91636841 -326.40810181 617.91636841 -327.58959961 618.21362305 C-344.69920321 622.27192391 -361.50210083 623.48847238 -379.05419922 623.39111328 C-382.49617117 623.3750179 -385.93696937 623.39106429 -389.37890625 623.41015625 C-407.2844384 623.42820311 -424.24125527 621.51802246 -441.625 617.1875 C-442.67059082 616.93178223 -443.71618164 616.67606445 -444.79345703 616.41259766 C-454.04006221 614.09634782 -463.04019865 611.24038412 -472 608 C-473.17046875 607.58234375 -474.3409375 607.1646875 -475.546875 606.734375 C-478.03689697 605.83695591 -480.51974298 604.92387449 -483 604 C-483.80581009 607.33006775 -484.59174405 610.66456176 -485.375 614 C-485.59671875 614.91523437 -485.8184375 615.83046875 -486.046875 616.7734375 C-489.36581495 631.02535613 -490.38512054 645.05215433 -490.3125 659.625 C-490.31034485 660.40958588 -490.3081897 661.19417175 -490.30596924 662.00253296 C-490.2495646 674.85708558 -489.63705369 687.3806746 -487 700 C-486.71793701 701.35544922 -486.71793701 701.35544922 -486.43017578 702.73828125 C-478.21405341 740.54420951 -459.73210768 774.21682649 -433 802 C-432.47470703 802.54720703 -431.94941406 803.09441406 -431.40820312 803.65820312 C-424.665366 810.64156952 -417.84007159 817.2370071 -410 823 C-409.08605469 823.680625 -408.17210937 824.36125 -407.23046875 825.0625 C-362.50562411 857.21386457 -308.05386542 870.21332183 -253.56640625 861.96875 C-225.49860392 857.27705035 -200.37321335 846.31926285 -176 832 C-178.31144406 828.41853174 -180.63329703 825.15619385 -183.5625 822.0625 C-212.91273279 789.40901223 -231.32829756 746.88934748 -239 704 C-239.24339111 702.73712158 -239.24339111 702.73712158 -239.49169922 701.44873047 C-244.59756899 674.30700169 -244.38295432 643.07095016 -239 616 C-238.82307617 615.08992187 -238.64615234 614.17984375 -238.46386719 613.2421875 C-236.26928868 602.23518235 -233.45606143 591.51121408 -229.79174805 580.89941406 C-228.19888013 576.49999171 -228.19888013 576.49999171 -229 572 Z " fill="#1F1D1A" transform="translate(649,77)"/>
</svg>
