<?xml version="1.0" encoding="iso-8859-1"?>
<!-- Uploaded to: SVG Repo, www.svgrepo.com, Generator: SVG Repo Mixer Tools -->
<svg version="1.1" id="Layer_1" xmlns="http://www.w3.org/2000/svg" xmlns:xlink="http://www.w3.org/1999/xlink" 
	 viewBox="0 0 511.6 511.6" xml:space="preserve">
<g>
	<polygon style="fill:#434A54;" points="462.611,466.386 417.396,511.6 372.181,466.386 417.396,421.155 	"/>
	<polygon style="fill:#434A54;" points="409.855,413.63 364.64,458.845 304.343,398.548 349.574,353.333 	"/>
</g>
<rect x="350.947" y="237.581" transform="matrix(-0.7071 0.7071 -0.7071 -0.7071 916.4468 363.6056)" style="fill:#656D78;" width="63.942" height="268.047"/>
<path style="fill:#4FC2E9;" d="M192.508,351.725c-0.016,0,0,0-0.016,0l0,0c-45.542,0-88.368-17.736-120.577-49.945
	c-32.21-32.209-49.953-75.035-49.953-120.593c0-45.543,17.743-88.369,49.953-120.578C104.124,28.4,146.95,10.664,192.492,10.664l0,0
	c45.559,0,88.385,17.736,120.594,49.945c32.21,32.209,49.945,75.035,49.945,120.578c0,45.558-17.735,88.384-49.945,120.593
	C280.877,333.988,238.051,351.725,192.508,351.725z"/>
<path style="fill:#434A54;" d="M192.492,0C92.43,0,11.306,81.124,11.306,181.187c0,100.077,81.124,181.202,181.187,181.202
	c100.079,0,181.202-81.125,181.202-181.202C373.695,81.124,292.572,0,192.492,0z M305.545,294.238
	c-14.691,14.691-31.788,26.214-50.82,34.271c-19.703,8.337-40.64,12.553-62.232,12.553s-42.529-4.216-62.217-12.553
	c-19.04-8.057-36.136-19.579-50.827-34.271c-14.685-14.691-26.222-31.787-34.271-50.819c-8.329-19.703-12.553-40.64-12.553-62.232
	s4.224-42.529,12.553-62.217c8.049-19.032,19.578-36.145,34.271-50.82c14.691-14.691,31.787-26.229,50.827-34.285
	c19.703-8.322,40.625-12.553,62.217-12.553c21.593,0,42.529,4.23,62.232,12.553c19.032,8.056,36.129,19.594,50.82,34.285
	c14.692,14.676,26.229,31.788,34.271,50.82c8.337,19.688,12.553,40.624,12.553,62.217s-4.216,42.529-12.553,62.232
	C331.775,262.451,320.238,279.547,305.545,294.238z"/>
<path style="fill:#3BAFDA;" d="M192.492,42.639c-76.519,0-138.556,62.029-138.556,138.548l0,0c0,5.886,4.777,10.663,10.664,10.663
	c5.886,0,10.655-4.777,10.655-10.663l0,0c0-31.319,12.193-60.75,34.341-82.904c22.146-22.139,51.592-34.332,82.896-34.332
	c5.887,0,10.664-4.778,10.664-10.664S198.379,42.639,192.492,42.639z"/>
</svg>