<?xml version="1.0" encoding="UTF-8"?>
<svg version="1.1" xmlns="http://www.w3.org/2000/svg" width="1600" height="1136">
<path d="M0 0 C3.33163672 0.00915686 6.66257017 0.00231789 9.99414062 -0.02050781 C39.80338669 -0.22319873 68.5678035 2.27484306 97.82836914 8.19604492 C99.10355911 8.44833359 99.10355911 8.44833359 100.4045105 8.70571899 C114.62794091 11.53028964 128.47363577 15.08694692 142.2722168 19.5793457 C144.71354192 20.36851928 147.16163894 21.11889417 149.62133789 21.84838867 C156.71594321 23.96218384 163.60625005 26.39583396 170.44580078 29.21606445 C174.63409183 30.94185955 178.85588289 32.47851945 183.14086914 33.94604492 C188.73223301 35.9064893 193.89946862 38.30770553 199.14868164 41.04370117 C201.75691093 42.34781582 204.35051288 43.42203657 207.07836914 44.44604492 C211.39629792 46.11309338 215.12300076 48.28586216 219.03930664 50.73510742 C223.32169983 53.24943479 227.77257322 55.40012338 232.24487305 57.55444336 C236.38404149 59.57130258 240.13843766 61.84864477 243.95336914 64.44604492 C245.20869697 65.10163199 246.47804692 65.73184521 247.76586914 66.32104492 C252.46088487 68.61540166 256.66489961 71.47305684 260.95336914 74.44604492 C262.49250977 75.5056543 262.49250977 75.5056543 264.06274414 76.58666992 C266.29943263 78.12839089 268.53216628 79.67562397 270.76196289 81.22729492 C272.68779806 82.56618645 274.61660605 83.90083594 276.55102539 85.22729492 C283.54576166 90.0496822 290.27919577 95.19313957 296.95336914 100.44604492 C297.88608643 101.17718506 297.88608643 101.17718506 298.83764648 101.9230957 C308.05675584 109.17911256 316.75991582 116.82614274 325.23461914 124.93823242 C327.80250278 127.39001494 330.42652479 129.75376021 333.10961914 132.07885742 C351.0616483 147.67225746 366.30416883 166.68779729 380.56567383 185.61645508 C382.31062929 187.91707017 384.09771444 190.18287831 385.89086914 192.44604492 C388.58526085 195.89513111 391.02791459 199.46451461 393.41821289 203.12963867 C395.06241379 205.61058304 396.78385771 208.02571793 398.51586914 210.44604492 C401.23064628 214.29446527 403.55420677 218.21909762 405.77368164 222.36791992 C406.88736729 224.32977676 408.09861123 226.0828108 409.45336914 227.88354492 C412.00420542 231.33233915 413.79006252 235.01215107 415.64868164 238.86791992 C416.9032322 241.34697192 418.28684531 243.65809624 419.76586914 246.00854492 C425.40356811 255.2153298 429.56934709 265.30621046 433.9309082 275.16210938 C434.95537536 277.45052634 436.00678392 279.72461016 437.06665039 281.99682617 C442.13323123 292.92360373 446.41893663 303.93178899 450.23950195 315.3503418 C451.14556021 318.0102611 452.13897473 320.63342622 453.14086914 323.25854492 C455.00668602 328.377782 456.4238034 333.58716863 457.76586914 338.86401367 C458.62547205 342.23855622 459.55785582 345.58643633 460.51586914 348.93432617 C466.36335056 369.79682381 469.88882781 391.01860745 472.95336914 412.44604492 C473.05582947 413.16107178 473.15828979 413.87609863 473.26385498 414.61279297 C479.93113046 461.97688929 476.61061141 510.62001237 467.95336914 557.44604492 C467.75485352 558.55061035 467.55633789 559.65517578 467.35180664 560.79321289 C464.70067913 575.46499438 461.09805864 589.6470091 456.72290039 603.89624023 C456.05751516 606.1009621 455.42787016 608.30864501 454.82836914 610.53198242 C452.86059944 617.82912838 450.33294812 624.75702338 447.45336914 631.73120117 C446.01352054 635.24037532 444.75326684 638.79753383 443.51586914 642.38354492 C438.98122138 655.22208588 433.10774524 667.40362432 426.9309082 679.51879883 C425.97698099 681.39949349 425.03667406 683.28628174 424.10180664 685.17651367 C419.14011577 695.19825492 414.01880683 704.97462452 407.93383789 714.36401367 C406.4539996 716.66695728 405.00085357 718.97824743 403.56665039 721.30932617 C398.6619192 729.2740636 393.5623706 736.9521448 387.95336914 744.44604492 C386.68124764 746.2159531 385.41044231 747.98680792 384.14086914 749.75854492 C377.19397513 759.29349749 369.96810338 768.54974353 361.98071289 777.23901367 C360.202955 779.17433778 358.47760662 781.14007509 356.76586914 783.13354492 C345.29638101 796.27954756 333.23655493 809.12339568 319.95336914 820.44604492 C318.78172554 821.46825651 317.61126655 822.49182665 316.44165039 823.51635742 C309.75926129 829.36123615 303.07179375 835.13209122 295.95336914 840.44604492 C295.33848633 840.9075293 294.72360352 841.36901367 294.09008789 841.84448242 C292.80809947 842.80531018 291.52417164 843.76355459 290.23852539 844.71948242 C287.91114865 846.47794485 285.61622899 848.27538222 283.31982422 850.07397461 C277.98163481 854.23771577 272.58793818 858.11187621 266.82055664 861.67260742 C264.15803167 863.31945529 261.53318387 865.01646501 258.91259766 866.72900391 C252.01756036 871.22213211 244.97332256 875.39927511 237.78930664 879.41479492 C235.87946182 880.48755882 233.97839338 881.57474117 232.07836914 882.66479492 C217.47252489 891.01791007 202.60989577 898.20268059 187.04077148 904.58374023 C184.35232519 905.69433583 181.68651381 906.85591126 179.01586914 908.00854492 C171.21925107 911.25439436 163.20841517 913.93549849 155.22094727 916.66772461 C153.33163006 917.31621118 151.44661897 917.97722643 149.56274414 918.64135742 C142.96808894 920.92966674 136.29439969 922.70370912 129.50805664 924.32495117 C126.38623025 925.07584759 123.29852152 925.90423599 120.21118164 926.78588867 C106.28568594 930.65756286 92.22350231 933.0121295 77.95336914 935.19604492 C76.99670349 935.34465973 76.04003784 935.49327454 75.05438232 935.64639282 C52.20968872 939.16778799 29.56558133 940.84222888 6.45336914 940.75854492 C4.82544937 940.75531219 4.82544937 940.75531219 3.16464233 940.75201416 C-15.0791587 940.69426107 -32.94852137 939.88910454 -51.04663086 937.44604492 C-51.80141724 937.34658569 -52.55620361 937.24712646 -53.3338623 937.14465332 C-73.94122396 934.42612841 -94.0595964 931.0344898 -114.06665039 925.28979492 C-117.00771133 924.45706458 -119.95779982 923.67749321 -122.91772461 922.91479492 C-134.22196452 919.9830969 -145.13766145 916.46046827 -156.02172852 912.22924805 C-157.77746096 911.55015597 -159.54218253 910.89439233 -161.30834961 910.24291992 C-176.03102548 904.77724679 -190.39668192 898.23778149 -204.60913086 891.57104492 C-205.37563965 891.21429687 -206.14214844 890.85754883 -206.93188477 890.48999023 C-210.25008577 888.91371476 -213.35159063 887.30834911 -216.35913086 885.19213867 C-219.39649731 883.21873343 -221.02030477 883.10907753 -224.54663086 883.77026367 C-229.07486466 884.99430187 -233.49828467 886.52708668 -237.92944336 888.05932617 C-242.03671206 889.46660922 -246.18627835 890.68750439 -250.35913086 891.88354492 C-257.16953876 893.84710974 -263.89039087 896.02131662 -270.60546875 898.2878418 C-275.85949211 900.05910392 -281.13660776 901.72614659 -286.44116211 903.34057617 C-300.80987766 907.74615201 -315.07785461 912.44631861 -329.32382202 917.230896 C-337.27236373 919.89703648 -345.23131029 922.46447339 -353.29345703 924.76611328 C-358.69456719 926.31518497 -364.008653 928.06502933 -369.33032227 929.86279297 C-377.08930517 932.47782113 -384.87880818 934.99666774 -392.67163086 937.50854492 C-393.35262848 937.72815887 -394.0336261 937.94777283 -394.73526001 938.17404175 C-402.09962052 940.54780552 -409.46692732 942.91012579 -416.85913086 945.19604492 C-423.02972632 947.10503088 -429.14718127 949.15064346 -435.26635742 951.21655273 C-441.03544848 953.14784708 -446.84730098 954.87544467 -452.69799805 956.54052734 C-458.68177835 958.27124007 -464.5252603 960.33433863 -470.33984375 962.56713867 C-474.39443936 964.07195746 -477.72447782 964.73508471 -482.04663086 964.44604492 C-480.11912948 957.56452683 -477.82023212 950.84107904 -475.38012695 944.12792969 C-473.90212973 940.02003894 -472.56091033 935.89170578 -471.30053711 931.71166992 C-468.70632005 923.19625865 -465.79517631 914.79122105 -462.90472412 906.37268066 C-461.22832456 901.4886721 -459.55944102 896.60209683 -457.89038086 891.71557617 C-457.55968597 890.74768158 -457.22899109 889.77978699 -456.88827515 888.78256226 C-448.92679052 865.54240649 -448.92679052 865.54240649 -441.48413086 842.13354492 C-439.46350924 835.55411734 -437.15007182 829.10079671 -434.79663086 822.63354492 C-430.37854079 810.49252319 -426.26398336 798.26498931 -422.21899414 785.99536133 C-420.17517309 779.80771649 -418.10958008 773.62733307 -416.04663086 767.44604492 C-413.54410968 759.94383177 -411.04388084 752.44089238 -408.55444336 744.93432617 C-408.15354492 743.72711914 -407.75264648 742.51991211 -407.33959961 741.27612305 C-406.58833098 739.01352305 -405.83823476 736.75053326 -405.08959961 734.48706055 C-404.74799805 733.4590332 -404.40639648 732.43100586 -404.05444336 731.37182617 C-403.72734375 730.38520996 -403.40024414 729.39859375 -403.06323242 728.38208008 C-401.72244299 724.50976169 -400.21957225 720.7046718 -398.67895508 716.90771484 C-397.66238199 712.9501448 -398.46364915 710.47331879 -400.45361328 706.96679688 C-401.03473877 706.11045654 -401.61586426 705.25411621 -402.21459961 704.37182617 C-405.9793237 698.63405269 -409.2200675 692.7319783 -412.35913086 686.63354492 C-412.91673096 685.55403564 -413.47433105 684.47452637 -414.04882812 683.36230469 C-421.43184834 668.93909632 -428.26576397 654.30078019 -433.74584961 639.04370117 C-434.98864345 635.60642451 -436.3192192 632.21637449 -437.67163086 628.82104492 C-439.77371917 623.37563521 -441.42008797 617.88693695 -442.95678711 612.25854492 C-443.72314221 609.57767546 -444.52651624 606.9585813 -445.41772461 604.32104492 C-449.78265688 591.33698939 -452.68412993 578.16841638 -455.37817383 564.74633789 C-455.96476294 561.85024162 -456.57900248 558.96232108 -457.20678711 556.07495117 C-460.21683297 541.84235117 -461.53860312 527.46775869 -462.74829102 512.98901367 C-462.93063114 510.82361282 -463.12519092 508.65914146 -463.34106445 506.49682617 C-464.42394695 494.8475768 -464.29058677 483.1350043 -464.29663086 471.44604492 C-464.2973056 470.27397491 -464.29798035 469.10190491 -464.29867554 467.89431763 C-464.2710798 437.58311309 -462.30173774 408.16710465 -456.04663086 378.44604492 C-455.65967041 376.56344971 -455.65967041 376.56344971 -455.26489258 374.64282227 C-451.77686473 357.74561646 -447.42346072 341.29114177 -441.87768555 324.94116211 C-440.83034713 321.79668544 -439.90393728 318.62999024 -438.98413086 315.44604492 C-437.01502806 308.9636888 -434.38620555 302.78166018 -431.75366211 296.54760742 C-430.33235417 293.17209789 -429.04589293 289.76446548 -427.79663086 286.32104492 C-419.91251682 265.68321701 -408.84979551 246.29154905 -397.73413086 227.25854492 C-397.34990967 226.59999512 -396.96568848 225.94144531 -396.56982422 225.26293945 C-393.57627366 220.19930528 -390.34212429 215.31722019 -387.04663086 210.44604492 C-386.52963623 209.67639404 -386.0126416 208.90674316 -385.47998047 208.11376953 C-379.31372004 198.94765529 -373.10420942 189.95573588 -366.04663086 181.44604492 C-364.83306853 179.8876027 -363.62467662 178.32511972 -362.42163086 176.75854492 C-359.8212997 173.39829963 -357.12439834 170.15200241 -354.32788086 166.95385742 C-352.91512181 165.33282945 -352.91512181 165.33282945 -351.29663086 163.00854492 C-350.88413086 162.49291992 -350.47163086 161.97729492 -350.04663086 161.44604492 C-349.38663086 161.44604492 -348.72663086 161.44604492 -348.04663086 161.44604492 C-347.80557617 160.88788086 -347.56452148 160.3297168 -347.31616211 159.75463867 C-342.29946384 150.63196582 -332.69954759 142.98261873 -325.42398071 135.64816284 C-324.46334422 134.67934136 -323.5041768 133.70906103 -322.54647827 132.73733521 C-321.18591838 131.35897025 -319.81759436 129.98828234 -318.44897461 128.61791992 C-317.64967529 127.81451172 -316.85037598 127.01110352 -316.02685547 126.18334961 C-314.04663086 124.44604492 -314.04663086 124.44604492 -312.04663086 124.44604492 C-311.81331055 123.8659668 -311.57999023 123.28588867 -311.33959961 122.68823242 C-309.73924396 119.91299332 -307.90235921 118.51059732 -305.35913086 116.57104492 C-300.50063183 112.79995744 -295.79021191 108.92468789 -291.22631836 104.80151367 C-285.7860807 99.92291998 -279.99999241 95.67566531 -274.04663086 91.44604492 C-272.87946493 90.60689516 -271.71281794 89.76702323 -270.54663086 88.92651367 C-264.12754317 84.30712966 -257.68417186 79.74859382 -251.04663086 75.44604492 C-250.22163086 74.90592773 -249.39663086 74.36581055 -248.54663086 73.80932617 C-242.32550691 69.78548873 -235.96152743 66.0546369 -229.51147461 62.41479492 C-226.3725809 60.63125216 -223.27127095 58.79657632 -220.17163086 56.94604492 C-199.91589897 45.16761413 -177.67386498 34.91483308 -155.41772461 27.57495117 C-152.5156474 26.6031084 -149.7346327 25.52010405 -146.92163086 24.32104492 C-142.53812614 22.53111383 -138.08258049 21.30425927 -133.49414062 20.14770508 C-129.71526607 19.18679773 -125.99969862 18.12964107 -122.29272461 16.91870117 C-108.76497425 12.57659996 -95.130168 9.74119639 -81.17163086 7.19604492 C-80.27143219 7.02955444 -79.37123352 6.86306396 -78.4437561 6.69152832 C-71.99304111 5.5072916 -65.53012245 4.43488462 -59.04663086 3.44604492 C-58.09285553 3.29875946 -57.1390802 3.151474 -56.15640259 2.99972534 C-37.45322336 0.21319685 -18.86413895 -0.05407226 0 0 Z M-95.04663086 92.44604492 C-97.13630907 93.02216653 -99.22615739 93.59767144 -101.31616211 94.17260742 C-111.27413445 96.95463179 -121.01993136 99.92788413 -130.53491211 103.98901367 C-133.37715172 105.16827438 -136.20410153 106.21414382 -139.10522461 107.23120117 C-145.85143972 109.6628229 -152.30768942 112.65356718 -158.79663086 115.69604492 C-159.41224884 115.98361664 -160.02786682 116.27118835 -160.66213989 116.56747437 C-176.84692791 124.13399604 -192.19415816 132.49897605 -207.04663086 142.44604492 C-207.96702148 143.04803711 -208.88741211 143.6500293 -209.83569336 144.27026367 C-217.12387461 149.05877945 -224.13047903 154.13628719 -231.04663086 159.44604492 C-231.8394043 160.05448242 -232.63217773 160.66291992 -233.44897461 161.28979492 C-235.65720154 162.99738693 -237.85381254 164.71871961 -240.04663086 166.44604492 C-240.90514648 167.11764648 -241.76366211 167.78924805 -242.64819336 168.48120117 C-247.03973738 171.94650508 -251.13646556 175.43812549 -255.04663086 179.44604492 C-256.47974051 180.72182717 -257.91797578 181.99185804 -259.35913086 183.25854492 C-264.13231817 187.53004588 -268.69886302 191.98584451 -273.23413086 196.50854492 C-273.89904541 197.16894775 -274.56395996 197.82935059 -275.24902344 198.50976562 C-281.4173623 204.69649228 -287.11416916 211.21826996 -292.60913086 218.00854492 C-295.00413373 220.96604388 -297.42600899 223.88515831 -299.92944336 226.75073242 C-303.30295941 230.67467829 -306.34448513 234.8054855 -309.35913086 239.00854492 C-309.92599609 239.79648437 -310.49286133 240.58442383 -311.0769043 241.39624023 C-315.20974006 247.1822103 -319.13882832 253.0618119 -322.92553711 259.07885742 C-324.39074399 261.40483961 -325.87038539 263.70878064 -327.38647461 266.00073242 C-332.16656444 273.24857208 -336.29636872 280.60895866 -340.04663086 288.44604492 C-341.00979941 290.37392063 -341.98227585 292.29694025 -342.95507812 294.2199707 C-349.4709971 307.12813759 -355.43682561 320.01064518 -360.36450195 333.61157227 C-361.33792888 336.22944266 -362.42250641 338.80037402 -363.48413086 341.38354492 C-365.92556902 347.70765731 -367.77627111 354.17231512 -369.60913086 360.69604492 C-369.89006592 361.69498779 -370.17100098 362.69393066 -370.46044922 363.72314453 C-374.65193174 378.94574177 -377.87732336 394.1389401 -380.17163086 409.75854492 C-380.30047668 410.62567108 -380.42932251 411.49279724 -380.56207275 412.38619995 C-386.54959172 452.96388456 -386.22986361 492.77671905 -379.5612793 533.27661133 C-379.07334837 536.2815066 -378.62204732 539.28966016 -378.17944336 542.30151367 C-376.03277897 556.34176124 -372.31099631 569.71162243 -368.04858398 583.24853516 C-367.01374985 586.55097734 -366.01519017 589.86332093 -365.01538086 593.17651367 C-363.40164787 598.4242977 -361.5882685 603.53877337 -359.54663086 608.63354492 C-359.12317383 609.70765625 -359.12317383 609.70765625 -358.69116211 610.8034668 C-358.11336931 612.26624994 -357.53212186 613.727673 -356.94750977 615.18774414 C-356.33302765 616.72811258 -355.72624509 618.27156941 -355.1262207 619.81762695 C-352.57905896 626.32962493 -349.69360389 632.6418734 -346.67163086 638.94604492 C-346.21530273 639.91413086 -345.75897461 640.8822168 -345.28881836 641.87963867 C-342.58470704 647.53852331 -339.6601559 652.94981895 -336.35058594 658.27832031 C-335.14985696 660.2744395 -334.10460554 662.27924099 -333.10913086 664.38354492 C-329.85888881 671.04322456 -325.60550532 677.13676583 -321.47631836 683.27416992 C-321.03304199 683.93408936 -320.58976562 684.59400879 -320.13305664 685.27392578 C-319.2627666 686.56632398 -318.38891685 687.85633449 -317.51098633 689.14355469 C-317.10509277 689.74482178 -316.69919922 690.34608887 -316.28100586 690.96557617 C-315.92232422 691.49256104 -315.56364258 692.0195459 -315.1940918 692.5625 C-310.92432979 699.57126891 -310.92432979 699.57126891 -311.45288086 703.35180664 C-311.81381836 704.34970215 -312.17475586 705.34759766 -312.54663086 706.37573242 C-312.93657227 707.49222168 -313.32651367 708.60871094 -313.72827148 709.7590332 C-314.16333008 710.93449707 -314.59838867 712.10996094 -315.04663086 713.32104492 C-315.91233797 715.77377357 -316.77692873 718.22689653 -317.64038086 720.68041992 C-318.0619043 721.85668945 -318.48342773 723.03295898 -318.91772461 724.24487305 C-320.24008823 727.99462039 -321.41165161 731.76075745 -322.54663086 735.57104492 C-324.59017266 742.21255579 -326.92022707 748.7293291 -329.29663086 755.25854492 C-333.70895957 767.38350312 -337.81763109 779.5947939 -341.85668945 791.84838867 C-343.1156615 795.65475142 -344.38589055 799.45720055 -345.65991211 803.25854492 C-348.13660779 810.64961498 -350.59894147 818.04530577 -353.04663086 825.44604492 C-353.35713379 826.38335449 -353.66763672 827.32066406 -353.98754883 828.28637695 C-354.74550367 830.5867898 -355.49291611 832.89019421 -356.23413086 835.19604492 C-356.61956055 836.38713867 -357.00499023 837.57823242 -357.40209961 838.80541992 C-358.33759954 841.40289676 -358.33759954 841.40289676 -357.04663086 843.44604492 C-355.3934082 842.88336914 -355.3934082 842.88336914 -353.70678711 842.30932617 C-346.02505245 839.71229844 -338.34038165 837.18726495 -330.54663086 834.94604492 C-324.23083759 833.12355562 -317.99314323 831.13400601 -311.76586914 829.03027344 C-304.00589918 826.41494896 -296.215434 823.89573813 -288.42163086 821.38354492 C-287.74063324 821.16393097 -287.05963562 820.94431702 -286.35800171 820.7180481 C-278.9936412 818.34428432 -271.6263344 815.98196405 -264.23413086 813.69604492 C-258.06796283 811.78842867 -251.95482841 809.74449542 -245.84008789 807.67993164 C-239.92854249 805.70091008 -233.97214119 803.92286574 -227.9777832 802.21313477 C-222.95025114 800.76327397 -218.08843959 799.03937913 -213.24584961 797.04760742 C-210.64369948 796.33582923 -209.53765288 796.44183644 -207.04663086 797.44604492 C-205.46870491 798.47584923 -203.9296093 799.56628909 -202.42163086 800.69604492 C-198.32269849 803.64703582 -194.23608984 805.97395052 -189.67773438 808.12792969 C-187.17734959 809.3805582 -184.84419753 810.75602629 -182.47241211 812.23510742 C-176.89211998 815.6120556 -171.12493792 818.4670936 -165.23413086 821.25854492 C-164.13447998 821.77989014 -163.0348291 822.30123535 -161.90185547 822.83837891 C-158.62131512 824.3841845 -155.33500866 825.9169953 -152.04663086 827.44604492 C-150.7332373 828.06382812 -150.7332373 828.06382812 -149.39331055 828.6940918 C-114.61501842 844.92488629 -74.75512951 855.56657707 -36.48413086 858.50854492 C-35.44401855 858.59088379 -34.40390625 858.67322266 -33.33227539 858.75805664 C-23.90894531 859.48692503 -14.49319841 860.12548691 -5.04663086 860.44604492 C-4.30058594 860.47472656 -3.55454102 860.5034082 -2.78588867 860.53295898 C25.4826838 861.48366874 55.31766831 859.66582717 82.87475586 853.16723633 C86.15446737 852.39893595 89.4444851 851.69318625 92.73852539 850.98901367 C106.54455304 847.94402761 119.90324523 844.02144607 133.26586914 839.44604492 C133.98563934 839.20087128 134.70540955 838.95569763 135.44699097 838.70309448 C148.70632899 834.15737782 161.58406202 828.81676855 174.07836914 822.44604492 C175.41546573 821.76607617 176.75270807 821.08639394 178.09008789 820.40698242 C179.06147705 819.91149902 179.06147705 819.91149902 180.05249023 819.40600586 C181.8504664 818.49801173 183.66136669 817.61574201 185.47290039 816.73510742 C198.59574028 810.34615909 211.15659241 803.05339848 222.95336914 794.44604492 C224.61768552 793.27602788 226.28440317 792.10941996 227.95336914 790.94604492 C228.77579102 790.36854492 229.59821289 789.79104492 230.44555664 789.19604492 C232.13147076 788.01958149 233.82434705 786.85303868 235.52368164 785.69604492 C240.2257713 782.47504161 244.60812759 779.12962949 248.84008789 775.31323242 C251.2361583 773.19618684 253.71158386 771.19945455 256.20336914 769.19604492 C266.03364064 761.15552394 275.0997931 752.4069609 284.10632324 743.46832275 C285.112693 742.46999851 286.12053804 741.47315878 287.13000488 740.47796631 C293.87531061 733.81792665 300.03607392 726.86087724 305.95336914 719.44604492 C306.97091024 718.23941673 307.99461294 717.0379246 309.02758789 715.84448242 C313.53928207 710.62467481 317.86045298 705.43645604 321.57446289 699.60620117 C323.07557898 697.25459437 324.6588974 694.9765538 326.26586914 692.69604492 C326.84594727 691.8684668 327.42602539 691.04088867 328.02368164 690.18823242 C329.42998411 688.18980259 330.84225953 686.195572 332.25805664 684.20385742 C335.81340659 679.17343099 339.2887399 674.24287842 341.88305664 668.63354492 C343.33068401 665.67489044 344.98934533 662.85823307 346.64086914 660.00854492 C352.8903006 649.1629004 359.10717579 638.24492343 363.69555664 626.57641602 C365.00012236 623.3296882 366.39239884 620.13108999 367.79711914 616.92651367 C370.77155038 610.03764907 373.37659971 603.06120663 375.76586914 595.94604492 C375.97381104 595.32829193 376.18175293 594.71053894 376.39599609 594.07406616 C384.86331159 568.69654769 391.06081583 541.95762894 393.51586914 515.32104492 C393.58029205 514.6336322 393.64471497 513.94621948 393.71109009 513.23797607 C396.34380369 485.10639129 396.46850606 457.61158619 393.95336914 429.44604492 C393.81656738 427.82013428 393.81656738 427.82013428 393.67700195 426.16137695 C392.21462559 409.28760615 388.9268675 393.12580126 384.78051758 376.73510742 C384.08435681 373.96690261 383.41926938 371.19508007 382.77368164 368.41479492 C378.18233953 349.16760394 371.42791451 329.28702593 362.48852539 311.61401367 C361.22042436 308.9971436 360.15205746 306.42459122 359.10961914 303.71557617 C356.94169326 298.2209256 354.2509637 293.10778153 351.39086914 287.94604492 C350.86783203 286.99552246 350.34479492 286.045 349.8059082 285.06567383 C344.79071711 276.02413878 339.49355259 267.17467869 333.95336914 258.44604492 C332.94209961 256.85276367 332.94209961 256.85276367 331.91040039 255.22729492 C319.68994685 236.48086722 305.48418079 218.9245114 290.04711914 202.75073242 C288.09578333 200.70348751 286.32592317 198.66581178 284.54711914 196.45385742 C281.89934033 193.38339102 279.09520101 190.86065269 276.01928711 188.23608398 C274.04261587 186.52337381 272.14973013 184.75604407 270.26977539 182.93823242 C261.60187386 174.57088544 252.60134492 167.03589834 242.90600586 159.88891602 C241.06913002 158.53158465 239.24510798 157.15912575 237.42602539 155.77807617 C230.22785108 150.32383531 222.83088558 145.32602818 215.19946289 140.50073242 C212.85205881 139.01489061 210.51217628 137.51964021 208.17602539 136.01635742 C200.61223971 131.18160115 193.01979525 126.80443639 184.93383789 122.90307617 C182.61320876 121.76861396 180.41088564 120.59128799 178.20336914 119.25854492 C174.83074785 117.37765997 171.46061589 116.00602414 167.86328125 114.62402344 C164.83542154 113.39829787 161.90167002 112.03907456 158.94946289 110.64135742 C123.32645648 94.14254447 84.83900564 85.55924019 45.95336914 81.44604492 C44.7608252 81.31762207 43.56828125 81.18919922 42.33959961 81.05688477 C-3.11900498 76.37549311 -51.02019001 79.86274582 -95.04663086 92.44604492 Z " fill="#00A858" transform="translate(803.046630859375,85.553955078125)"/>
<path d="M0 0 C1.08249023 0.07001221 2.16498047 0.14002441 3.28027344 0.2121582 C10.71085076 0.79350524 16.37874283 1.86284124 21.5 7.6875 C27.7640738 15.28406319 30.54069007 24.6630569 33.70068359 33.84179688 C35.50301914 39.05914521 37.51953328 44.13675017 39.76171875 49.18359375 C40.76992458 51.75937543 41.5715004 54.27684027 42.33984375 56.9296875 C43.84496879 62.05990596 45.76450435 66.94110326 47.8125 71.875 C50.73800543 79.04215511 53.34158325 86.20895003 55.71484375 93.578125 C57.46920495 98.75713378 59.52514198 103.79229754 61.60546875 108.84765625 C65.0034975 117.36764036 67.07966052 125.9096942 63.375 134.75 C62.59878502 136.24852614 61.78346009 137.72721174 60.9375 139.1875 C60.463125 140.03828125 59.98875 140.8890625 59.5 141.765625 C55.56766045 148.3825425 50.83954628 153.85711365 45.5703125 159.40625 C43.4151015 161.68297141 41.3463307 163.99116122 39.3125 166.375 C36.06642829 170.1385614 32.54365789 173.57811474 28.953125 177.01171875 C25.2911253 180.9646913 23.0402472 184.74189843 22.9375 190.1875 C26.6071116 203.55363497 35.30229421 215.76086169 42.9375 227.1875 C43.98550781 228.75951172 43.98550781 228.75951172 45.0546875 230.36328125 C53.20719354 242.35313903 61.83647708 254.20887425 71.7421875 264.81640625 C73.61092266 266.83477323 75.41355581 268.88742456 77.2109375 270.96875 C80.8842652 275.17852659 84.73519946 279.17751347 88.6875 283.125 C89.38633301 283.82302734 90.08516602 284.52105469 90.80517578 285.24023438 C96.24843166 290.61968744 101.88178908 295.50253915 107.9375 300.1875 C109.66797583 301.58170997 111.39716189 302.97752244 113.125 304.375 C120.80314111 310.48370975 128.59607846 316.00968847 136.9375 321.1875 C137.96101562 321.82816406 138.98453125 322.46882813 140.0390625 323.12890625 C155.92089771 333.04245393 155.92089771 333.04245393 172.875 340.890625 C175.74514101 342.10604186 178.4245702 343.52119711 181.14990234 345.02856445 C188.03068514 348.76779346 194.11801855 351.13378382 201.9375 349.1875 C205.24320723 347.38658454 207.45165583 344.98525618 209.9375 342.1875 C211.23300781 340.82625 211.23300781 340.82625 212.5546875 339.4375 C217.94474823 333.7405118 222.99172156 327.80546788 227.8671875 321.66015625 C230.08769411 319.00811722 232.47499108 316.61471818 234.9375 314.1875 C238.66670894 310.14615463 242.1361428 305.95937484 245.4375 301.5625 C248.89473523 297.05170551 252.79042721 292.76103639 257.9375 290.1875 C272.66440915 289.3405851 286.19808346 298.19853853 298.7421875 305.01074219 C301.81732621 306.65911503 304.9331285 308.20684662 308.0625 309.75 C321.31910829 316.32403733 334.34397791 323.38026628 347.2578125 330.6015625 C348.03278076 331.03436523 348.80774902 331.46716797 349.60620117 331.91308594 C351.1955 332.80069434 352.78421008 333.6893578 354.37231445 334.57910156 C358.38276057 336.81414051 362.40004134 338.93209039 366.5625 340.875 C372.70668476 343.91520215 377.90215161 347.16259498 380.18359375 353.828125 C381.18507553 358.51228441 380.98357008 362.88464458 380.5 367.625 C380.41073242 368.51952881 380.32146484 369.41405762 380.22949219 370.33569336 C377.18940722 396.14761009 368.44519991 418.59541862 347.9375 435.1875 C335.27867889 444.95696722 335.27867889 444.95696722 328.015625 448.20703125 C325.79693137 449.21723057 325.79693137 449.21723057 323.234375 450.76171875 C297.88845971 465.44069733 265.1402591 470.23825355 236.84326172 462.97558594 C220.81166251 458.62757701 205.07467926 453.62746605 189.84375 446.99169922 C185.29947749 445.07458425 180.64305013 443.43450102 176.01171875 441.7421875 C165.65005894 437.85459167 155.5587503 433.29632508 145.48242188 428.73120117 C143.31110187 427.74936779 141.13607823 426.77606827 138.9609375 425.80273438 C132.07149574 422.69647096 125.4033701 419.52889551 119.01318359 415.45996094 C116.7986969 414.10240922 114.53658926 412.98075186 112.1875 411.875 C101.39123259 406.58703229 91.53368373 399.3692593 81.9375 392.1875 C81.2775 391.69894531 80.6175 391.21039062 79.9375 390.70703125 C77.92814564 389.21257394 75.93238397 387.70122357 73.9375 386.1875 C72.9371875 385.43597656 71.936875 384.68445313 70.90625 383.91015625 C63.93720172 378.64238473 57.37043397 373.10669272 50.9375 367.1875 C49.67053062 366.07890179 48.39983444 364.9745447 47.125 363.875 C36.22004989 354.36076215 25.43573168 344.55167252 16.015625 333.546875 C13.78343799 331.01258749 11.48280805 328.55369257 9.16967773 326.09350586 C3.75934664 320.33544947 -1.3202516 314.51435335 -6.0625 308.1875 C-7.36907017 306.53695524 -8.68185686 304.89131723 -10 303.25 C-10.66902344 302.4146875 -11.33804688 301.579375 -12.02734375 300.71875 C-13.36985463 299.04898599 -14.71613367 297.3822437 -16.06640625 295.71875 C-26.93040031 282.28226419 -36.8693306 268.01710858 -46.04296875 253.375 C-47.75470966 250.67329674 -49.48951016 247.99025812 -51.23828125 245.3125 C-51.81465332 244.42981445 -52.39102539 243.54712891 -52.98486328 242.63769531 C-54.13671417 240.87566616 -55.28997039 239.11455464 -56.44482422 237.35449219 C-59.47983943 232.7069262 -62.33565619 228.02118946 -65.0625 223.1875 C-65.701875 222.16914062 -66.34125 221.15078125 -67 220.1015625 C-72.02549632 212.08741874 -76.33268737 203.83547926 -80.4375 195.3125 C-80.94925781 194.25498535 -81.46101562 193.1974707 -81.98828125 192.10791016 C-84.78428944 186.22201625 -87.12714914 180.40229428 -89.0625 174.1875 C-89.63172447 172.53518175 -90.20481564 170.88419181 -90.78125 169.234375 C-101.88963983 136.63440052 -103.96645888 98.64078077 -91.0625 66.1875 C-90.81516113 65.54506348 -90.56782227 64.90262695 -90.31298828 64.24072266 C-84.91780235 50.35142102 -77.30779672 38.040391 -67.0625 27.1875 C-65.71252274 25.69911496 -64.36264871 24.21063478 -63.01464844 22.72045898 C-61.57659576 21.14048686 -60.124387 19.57475875 -58.66796875 18.01171875 C-57.19934365 16.4197908 -55.74828595 14.80972081 -54.36328125 13.14453125 C-40.35031384 -2.92808491 -19.22919172 -1.37769274 0 0 Z " fill="#00A858" transform="translate(673.0625,325.8125)"/>
</svg>
